<mxfile host="Electron" agent="Mozilla/5.0 (Windows NT 10.0; Win64; x64) AppleWebKit/537.36 (KHTML, like Gecko) draw.io/24.7.17 Chrome/128.0.6613.36 Electron/32.0.1 Safari/537.36" version="24.7.17">
  <diagram name="Page-1" id="1BZa0pVyBEMGuC-xCw23">
    <mxGraphModel dx="627" dy="496" grid="1" gridSize="10" guides="1" tooltips="1" connect="1" arrows="1" fold="1" page="1" pageScale="1" pageWidth="827" pageHeight="1169" math="0" shadow="0">
      <root>
        <mxCell id="0" />
        <mxCell id="1" parent="0" />
        <mxCell id="3U-C9vwaX2pTOdvYETxJ-1" value="" style="rounded=0;whiteSpace=wrap;html=1;rotation=-50.4;" vertex="1" parent="1">
          <mxGeometry x="506" y="307" width="149" height="13.3" as="geometry" />
        </mxCell>
        <mxCell id="3U-C9vwaX2pTOdvYETxJ-17" value="" style="rounded=0;whiteSpace=wrap;html=1;rotation=-125;" vertex="1" parent="1">
          <mxGeometry x="499" y="446" width="186" height="13.3" as="geometry" />
        </mxCell>
        <mxCell id="3U-C9vwaX2pTOdvYETxJ-5" value="" style="ellipse;whiteSpace=wrap;html=1;aspect=fixed;" vertex="1" parent="1">
          <mxGeometry x="615" y="230" width="40" height="40" as="geometry" />
        </mxCell>
        <mxCell id="3U-C9vwaX2pTOdvYETxJ-28" value="" style="ellipse;whiteSpace=wrap;html=1;strokeColor=#006600;fillColor=none;" vertex="1" parent="1">
          <mxGeometry x="521" y="451" width="220" height="152" as="geometry" />
        </mxCell>
        <mxCell id="3U-C9vwaX2pTOdvYETxJ-27" value="" style="ellipse;whiteSpace=wrap;html=1;strokeColor=#006600;fillColor=none;" vertex="1" parent="1">
          <mxGeometry x="521" y="503" width="220" height="43" as="geometry" />
        </mxCell>
        <mxCell id="3U-C9vwaX2pTOdvYETxJ-31" value="" style="shape=stencil(7VvJbhw3FPwaXQnuy9lx/sOA5ViIYxmyneXvU4zC9rDeTDUCBD4YukkzXUO+vd4j+y69+vz+zaf7u+g/f3l6/PX+j4e3X97fpZ/uYnz4+P7+6eEL/rpLr+/Sq3ePT/e/PD1+/fj2+f9Pb+aT86/fHn+fv/DnM240V/xERf/X8yelu9r++eTnZ8CHh4+XgOxKZsDwAhBcqDtgyBV6W7+3ADW4lAUgu7avUKsLQQCCWQFrxtuA1l0qOwBaGgKQXU07YLghZGjBtV2tLbomtIQd910GbHKILdXk6r5Cjy4LAMw0drVC0b0LQHF531LHloQdSnQp7IDhcr0NyN3IMFxLAlDW1wsw/VfIkLGluAOqi8I1EgJoXwGm7CIe0nB+96WSXBaWxpbCrtYcXFUyVNd3LcXuilphuLJbOkYZDyW72DZASBoALe1Cd5eVKzXX+vZ8QkgLEbCjtMsMPQelpOFiZ60m5UrVABA/CpCc370bn6iAw47Ju7N2VuikjB1QZC5OaWn9ADQXRVqCmdLuGQjBJOwQy9LJARgyUwIQ9oBDVvg3QK4DYOnOgK62lDgXA6Di55vzH4AgDQcAhQOETmqFwGkJ3qVyQDx888L5VMABQEkjIRcrtQbnKYDyisGbK+xCJ++qSN4A5B0Qkai0DGSHqAMIdiAyE73raktp5YgjjyE7qxVMEsAKUa0w1o4vAEkAptYTAxQRgF15S0GGKDwnmmwfhGtM3wwMkHXdc12HohWDQwUchQFFAZoLiQHKNUAhK/lSWZu8DjAxDdurLVWTNWLTAIhIWtJZo2bnKaaDjGkAEoVokcQYACoo8C4V0wDU3XCzKIoKNFcgQF0F4BYgUo0ba5O31Np3wEz3ok4DwAWlrFx4y9JtV2upssYBEHZLw38V/YG35swA5RrFUL5aXBeugYjzpmeKQgbU/V55BVWBwF2osAPgVeYbZktZphmwGSKJWOGEzcTEgKayt4lpaEmR+9BWRbvoLJVawZu5s8RPCKEHF1F0ojLguMKhEfUiGuLy5KOdQYETv2/6JTyflMDcq+N5L+QNxmS6p/Qcm/UoFTeep54VTtfE/r0LFGigqyIMPOfsOS4RkWyfLyu0b+3HkFvloYd1jue99AejT3QMijwbe520JPAHqgcntJOpBZ7X/s/EOUn+FeKVNm8oQGGPno2fkniYmpllVQa14S0VzYPrFaMpI0SzJXhFFV6N1Et0Cm6qwj7Z2VBannIdEFcaPAYxQSZGyEB2GFGO3Gb3sQs9yuofrgM8N8PB+zNTEwEbQ5eDzul9YJdCTSg4FD9Dc3MAEhminQECjW6ijqDGo5hWZRdmi2YLOuSOcdZFUQhKraYLm+RF+YbnQQkAWbfP2fCpE2pBiQyFuaktHd58aAn9gMqUiS3dxirWNwF7ruxZDxkSzwyGX6nqlgzs3lnSVKiVEtPosled9WoXGhEnA2gw4QGgCaHhfBxx7SxEaY4OoZOQAYC8x0MfsgubIbqrFYZTyTUcU7/DNfpS9C0AzdCa7rehJXI+uHfSqZJkQAAVle8956UZov8rAEokQNIBZKbW1Usyg/6delWsoA5xkuea1YPshmPlLqzpfnummX0FWLop1xjsrS1Kw1nCdHJiYinZBKgGnfMYnleT+pce5jv0MMKFXnoY3cOYnvzkXKhyKsX+1XxqLGpzMZOLqgQaZgGAOmCcLNWcdxQVkdEAkDVUru5MRdCFqYqGDqaY8z8ldOp8aQCfqOPw2dURoMqwzH19fTGuVTclZpjsiWieHghHKpXvYswZmrBDGXzbA1uSrvfDjs1Phto/5thcrfADjM2rqQyQQRnOnjvNQboKIHOyBbWq2mnPzkrSFxnM6RwAVaRKe/5XsjwwtCeM0FIQlp5ZKDJA9VTRcEgAFA/+PrcGMgNebg1YwMutgfNbA3kF5AEocmRgD6pCdkOFKOxqAOq+FKgIGQ5dlrr+NK9T7WoNXt/VizwR69K7J0el5lkODGZ0kZ3l9BbFho4X9ewW1Cd6el6xNxSfQV2qTGHlmEtdMlYFqExLZr5QZ7yRJUbfpvpatEXceA59cTCZyW2Vw4J5c5G2pFtDkGjSUtGXUOcVUUrDXsoALZGd59mHvubaOwMUPYTW6SgDilb5whIfqKEqalWY4mY9YqxmiIn4Vg1Zi5zzwInVuXArTHHRaqghQxucL5K+F9sTH8ck3fL1xmqdZ0bqrru5uj4PytThvLkcj+qmkp69fj/LoVqhswxoZpRax3Gd/wBE2ecOM4hFSVdsbww+jUFxka8QDB5ippP5tjcTpRwlL7mGqLK+2U3Ni6taTyT2JIjKdEaxJzTamg7th7pBM53DDOrU7cT//vbHOQB/fHvZ5N3Dhw/P76pcfs8vp+Cj5xdb0uu/AQ==);lineShape=1;strokeColor=none;" vertex="1" parent="1">
          <mxGeometry x="534.554748906636" y="509.1438049180824" width="49.978806406900084" height="8.958430165227972" as="geometry" />
        </mxCell>
        <mxCell id="3U-C9vwaX2pTOdvYETxJ-33" value="" style="shape=stencil(7VrJbh03EPyadyW4L2fH+Q8DliMhimTIyvb3KeaF84bFmRJ8MWDEt7ewh+yturo5l/Duy/2Hz3cXb7+8vjz/evfnw8fX+0v46eL9w9P93cvDKz5dwvtLePfp+eXul5fn358+Xr9//tBX9k+/Pf/Rn/DXVS6bXLuQt39ff/DROP/vLz9f1z8+PO3WO2ecnQW2RxwLFGPLJBCsCWIHH0wkgWisEMDzopsFqqlZCOBIs9LRmyp2wN9+3iEm04TSsZg675CsaeVcIAXjZqVTNk7skKpxcRLIMEM8F8gwa54FkinCSrmYNCtdnNyheJPTJFDtsNvxDsnk+Ug1mRiEQDQ+zEcqxqkdnEltVrpKpVMZf29+qFJpOC6T45zUITZTZsdFPMLKWCKzIhytUDpmk2Ydoh0BfyyQTKUEQvwqHdKSoskEvUOaHRf8yJAzHewMMz3LtUCdlfZVwkysxs5mBZAlZdZmEiFfGkl7HBqAyllpYGtQArBJZAGnojWatAgkJZCXI22eOcsHAgFfJBgj4wqFRtAgkAcwbtHqpFmBQmHO6R7w4kglLynqTRA5XT1DJUCgJiEAK807ZO2H5tmsuQ27He+QWekSTBWoUZ3xJAAwFkcCkmbLOkg/hJFfm5WKrHGA3kZmRbAIHboRydNplPpjATuq8j6WFHo30whm2lsCbt4hZEkdeuQsbEbhEgQoHwKspJjAikvNBFXYgaQkUCTXQE5nghkN9+AabsElq0IjcgUCCwwaNajGQUBBJYLPVxbICsgaUzjokFUCuZFfu4LiBbYigZi3IqebTNE4ZxyYgOLeAIG40FCvUCMtKZolajQ7+NeGGn7wm+MdgrHEW+tbYBzmaEXAK8cB7uvCyBTn644jdg9uoGIpcnjDD7Ls1pEuO4KlQqOfmPKhDd8fkxPHJNFBBxFLoITUxzndDtyAcRPwkiSGBfma5LnYIMzcJGuVLVdpndDwkSMTmagshGZjzjZdQMFCYqL1VpAGBFl2tF5R4mQ5mf3gNWcxVOfzJONVafNcbevIvLP1dH6HbksojAO12aAujsJypjGdyBWpAkxayMVthPmZz4j0dKcpgThK624HNWvoo4PZa0jMrBOTKpvLw9CneUM7BMlWe2KSgJVHCo2xooxQP1PBEqDqTHPcHXrZ1aNhJsZjJfyCNRZeL50MHsuZKc+/sEinp0NfuT4t7UUb0HpcnzwP9YDtSSiAEkzQiBMFRV2WCtjBWrisgpnTAMBp6pKZJ4RksjhSW9ClD/WEl1saf+95grBSyywAQys/QIDiulM+rYObdQBdUq1tXYZ6t1+OHdc4lEAqVe6UxOPb3keqWEJwR7ZSU4PJzKw26Yly7y5mPyCh/p9tofDDj7ZwCHx/bSENiEHEVHkodblhSdJKfb5FCeSkDgDjQoOYKm+J2katt5xOcogBqCTmhmBp4kjOWp4QoyipQSO2ID5fi26GM48ya5UTYtjVEoPWR+q3FzSk2xjssQCa4dlMtyHCWULQ7DMXWSCAAoW6MDcq8THOpKXdhtKqDVishGBSM+hvcwEyh8a3uQBRnPLHBch/At/ZBQgECGY6NVZV0XNfDyrg1C1oHrG5zwdxJDA20qG7UgkE3gFaKe5QMnd8OKScuQHnZisBC1W0loX/1K10n7UoPH6qmmzU0V/c2mLdJ+bA0wP0FGroBnC1YVFChysL6CuTPt8lu+qpT4xLj2Il6zsY0+ERSiBw9CU9y+wvlMxJjTRXWNlHMMRnNGNyfnC8TUCPTAq/dwArKPLtl/4hj5HC8YEO1qtYdQvji+MJh+stjybhFIVJlks0mg3lgYWLhS0OT9YT70GtUrBtl05Dg7AbVwo7lFctpR85sif14vnhoGtQ/o1804P1KmcSd+m9KxHx+bVvcb29Hh9ur4x9enh8vL5xtv+fXzHDT9fX08L7fwA=);lineShape=1;strokeColor=#FFFFFF;" vertex="1" parent="1">
          <mxGeometry x="619.7719032470347" y="509.009878739407" width="3.5529032079111893" height="2.447752488755298" as="geometry" />
        </mxCell>
        <mxCell id="3U-C9vwaX2pTOdvYETxJ-34" value="" style="shape=stencil(lVhdUxsxDPw1edXYli3Zz5T+D2YIJVNKmEC//n11zdjEutwyvB2HN7a00mp9O755fbx72e9SeH07Hb/vfx/u3x53/GWX0uH5cX86vNnTjm93fPNwPO2/nY4/n+/Pf7/cLSuXpx/HX8sv/DnjmpDUBZXC3/ObHKno/zdfz4Cnw/MlIFKIM6AQt21ATVTLBChMLW4D1ABpAghTqtsAEUrzDlL7Ia8CSqMYJoDtKQEAImWeAZY32QZkJp0BNVAGO7AQ6wzIFEBaU6Myx1CVKgMAU5yzZFQKyFJUKjPTLVMFPDTiPK2PIVAAQUdPg20QwAbj1wYLSjmBkH0AEklhANX1gpACDqJQkBkQPuLAlbbxjiJgC2HegRmWdk6+jjjAnJZEYT5SUpICui0Sz1lKmTSDfg6UZhqMGBSDrgovNpjWyj2JA6DUEGAlADFjgHgRsyxlkCWtJMkHLUBXLejo0hq6NF8HyCoGJQWapIVy80EnxIMBHA9YxAxQ5+KTLoNbIdRZJZkK6DdLqsuR1SIKoPV27+sDRdBt1WRe/XpAstWd6/+IR2Hu6XuPV9F5ildUoQbyb+t1Pr8RVkANGUAcIPfu3gKEmbGl0wAFlqI2AyynFcWQKLs+SFBeavBFtFQRqrrmB6EB0Ki11hS3gxUK6jRZNU7twr/VOOJGp/Ue0tTiRThGLC+l+5UxO7EJkx7hGG19Em3lSJ0aUUPrG6U5pwEXXujHfV+PrEVdDc7QFXxzffnEevNOxY2c0CO6Dihdei6qTkEEizub5ZqNdKQW2ZtUVlwT1c9ZtjJFpEVf1xnri4zWHQCG5sKuBmkOOmtvjet+J3tBMq/OgAfOvlDLcHHXPZt0jR4iHOCUsspxzlywQYrJjwXNFAFgTIELHwydfPEXJDWJBBtYCG6QmIlD3sLUJM16JEoBEG00pLk/l0seIjr2G9rgrcHhn1v3vQNgaQD9Y3XgjlRMdED/2ImjK1bzZOBIMtprABIEWB04VbL7goIj2bh1MSz3RGRJqi/WVCBxdkVLc0ub0iuIwYSPV9OTAdNNvJs3AJo9Tf2sMsuAhkmrqysMQ6PazDKwzxJqIAM4Y5UUq33rpXZxb4vo7hxWt+Hlsoiibr6pbaCge5gBnBjbQEmoNmo/wAA0aKCNOTfjbKAIIuLTn6s+BtjD+9exh8PT0/nj2uX//dc0e3X+Ese3/wA=);lineShape=1;strokeColor=#FFFFFF;" vertex="1" parent="1">
          <mxGeometry x="583.1614514157588" y="506.9498014324266" width="3.5034472489988313" height="1.5497504863630136" as="geometry" />
        </mxCell>
        <mxCell id="3U-C9vwaX2pTOdvYETxJ-35" value="" style="shape=stencil(7VvJblw3EPwaXQnubJ4d5z8MWI6FKJYh21n+Pt0Y8HlYPVMDBTkEsW5aWEM22Uv1MnflzZeP7z7f3+X45evz06/3fzy8//rxrvx0l/PDp4/3zw9f9ae78vauvPnw9Hz/y/PTt0/vT79/fmcr7affnn63T/jzhKs9jGioHP86/aWkkE5/+fkEeHz4dA6oodQdkMPoBJBDkR1QgxQCiKH2HaCHJIAioacdIKFOAhgh7gDdMycCqCHuMqhUvRFADqnsgBbSIICI11pnKPk6IEto+w6thFYJoAfZX7rpNZCXzm0pwgGQkNiRSshtA3S9JSJ0TmHsQvcWJpEhzdDzDpAwiQxpLN1cgJGCCAH09UwHQLWVqHeqoQFAghDVSCXEXQbJITOh07r1A9CW/l4EzNB27ZYRJnm3gQY6c6hkfQtt14vZQmHWE8quqXOGSG5Id2+4nr7Z0pm1PsVINTtd2ICZTgxz7uvV+MgFxdBg/aAPps5n4oUyH6zSwfpML+i4jWN9XCpybf1+oSI3zpP286iCCl0PDl5KGEQhYhBnMZH4lRQyfL5+ArMwdEO6PjHvHmSXd8wwyP2rE9rPry6C+fYUnU8ZoTKFLqihoy+ju+YXZTeBoTbMgkFaN3jmFzMDdIweo6xnvxYBUWiNJyxkqpEkByDPUKYLBuqayDsb1xEnA6MusuzwDNDILWnMztUByC1pzM5Ohk526NG9tAKIDF11yctAjtS7U+9CdalPpF8jh0mOpDEbQqYCGnk4/fcoCEjMQlX74VrVSRHlM4PcZehj6e9lwFwh4wDU5XYuAiThw/VEw7LURUnPCF4lQktH5WuNH2mg41P9Zdxf5tLNA5DoS8+0NOeMBk/GdfL69wGQEMmRNLRW2KHQdGQ63qx+hCnfVK+xO7JSKCNUGcZ+rYXzF72ltGuretvOVGOib/0ew669dN6FtiBMjqQRP+3KlyRkdqSCBqQxqbEjpeV6zwCdqIZZXMEjMRkUAFmeAgY5kobxXp3QzAkIWpzKkJkjGyu9OQBtkaFrAHACmqBE5lvHSpUPQKZk1QC7DMrOb3hK4CY0m/cSqFPi5wEPUGgOaW+wf36mZN4eGW6Ur5/Izo/odVmvI3KGRsmqGk7JsJ4l2WaZ++f3W04eaRUltyLoH/XCmAOOyMImLaWYs9t9V+LsXAENHoyXtBQg+4nSkYJec9jAbdXIWGVkZmf3nafwGVNC9SxMi/wOlsVxAKip5dE3bgl2KDwOJmQ8udI01V4aLJPnkaZKcKRO/a8CwHYMQGRQ5a4u0jIyLMcBzmUgL22p78Bb6iwOOn+hDoxVqBRQMwIYP1dA3AOnuTAWByfS7TRp+jkcH7E4yJ1qAxOtYXK6DXVttWkaOCemPeo1GAnTWyroxwZfLwnWsyqY8p0MZTnqY3Q9pGGcOYtzACowq0ooAErUqXCK5wp5Sl4qP5LnhJ3FqrwOcKZ49BESkgVV7cKiZ8Jip5UnOQCNhxfnxNU9jJCwHaJzk4n6JFVtcbc0OaC7d6CcarqQ25Y2Xt3B6RIrSY6DZJ5pK3XE0alGpEVDBXS058TzEWjxTM7zXrq+YFn7yGeuRR5w85PzQnFVcBqoXnnbD8TbwIP9H3gb75mp9UB0VqFZU0sqKp9eK82rMqbyCmD2YAQAjpRpufq14LFs+rXg8d8ueEDg4dVOY4Ud1idmaBXzTt7ttJQNnAsP/ILti7bM6Jrz6ruVCc3XpqfNibZHreDsbCazHfrKPM4IIZtOmW6MQnWOFZytww8eXih7OWvZH1pdV0Z2bQugC3VSwzchoBnRKA2evnIWqYu32AyAeqsWBnShd178E9SlLjSYS0PnNTLt26q1dWidNap9RrShdSa0T6X/Tq7dXlg60nDqxw7J4ppr/ymZZtzfNxh1B5ZH+hamZcdEaN8ktVSUXKtvwyqA1YV8o9cA5Ei+lWwA1nt2zWqrObBZQdcONwB5B99wty4omwGYWD2zsgabFWyYhVkNgQ0NxAvKx8JzduFEeGqr4QbHbXhASYJpjIxVmrkM8Nc6+ZxdwiPNQgckBSeANMQwbtuW7h/rhcb0GrIbIWM1ktcRsn8yQka8yw84QgbO9N8dIctILazAxUaW0WBGpzMFHd9rFJ5U4AiCRjg2MzqRVvROQ4FV62ADPoGQCk693iBf6WibHPRu0FCQOhZebZqF+13Ifluk4y+mpTAFrlZPdjA/BHPmjXp2dYwQCmp64VhejXwYdyCXKjfGxiemj6XQEntxvlRjLmsT6Od1l1ywwkhxpVGbl2GziIJE3obhGeCwlvMiG1FvfSbomt8o49WCWb+1OtjwYkd6Z0Of5FoVAMNaNj3Pd5iu3sSISx0Yxq3exAHQfUm8SF1djqfXmjhAXLuG5RbVzcBlPghrAFeKZBWtetz6ARg0P6rDdZCEdl8UgOXUSaNbHdjUMlrMVeOFXyu6DdAfvn+L6cPD4+PpS1Dn/8dvPemfTt+YKm//Bg==);lineShape=1;strokeColor=#FFFFFF;" vertex="1" parent="1">
          <mxGeometry x="571.4499705746409" y="506.2185890938505" width="11.791459054065397" height="2.468973060484581" as="geometry" />
        </mxCell>
        <mxCell id="3U-C9vwaX2pTOdvYETxJ-36" value="" style="shape=stencil(7VrLbuQ2EPwaXwmSzed5s/mPBdYbG3Hshdd5/X2KmVARS6NyfAmQwLexZspiP6q7uqUb+/Dt7tPX25vov708P/14++v955e7G/vuJsb7x7vb5/sXfLqxjzf24cvT8+0Pz08/P36+/P310/jl+PTT0y/jP/x2waXgkh+o6H//60pyuf555fsL4OH+cQew6kpfAdVZF4DkSlkA2buqAMGVvALMdX8OiNX59Ui5O58FILm+3qHADcJoACwcAMKGaK60FeBdUzaYC55tSEUAoivrkXJ1OUlATCsgu6C8FJ2nO0SXTACC67amRn/tSJ6Sr8zYn9pAd0BqRO0lukNwWQHM+TVw1iUfRqTXXLLmYpC5FOkOCJxKjc6pkYL0kiFMkTntFaeLa+TWOh19FYADdGIc3CqMHjViNToXSVFQPqxHAh9U1cDXoa6MM9dE8pXMRyrVBcG4GrjyFVBUGF1RKlfG4V90caQWXVuPVM1lYXRDmNZIV129O6rQWowr3CD40M3VxoAovNTrAVBkEejNhdWt8JuqfADUlQ+1yULW+/x6A3Rnykug/Jp8LTivbOizuG8Ak4wDoK9xaIiDYFzwnmslgl9F2Ri3WMs3gv+KEZTfPc70OgPYSrmeZqk6ixxZ3bPLTQLSmky96PyuhzvU2cXOAMn4Dk1QDoTIK+VG8JWX/Cx0E7CL5XVWoy/TLdrUUNcLTZsn2Pm16VJmazIh1EEEokSXVyNakTagfpOuBOeK6hB2YPXWxs50JbXFkrQWyDP9t5bSnBdeCmV2nL1yFXcIfjbBvTxRXuJqDO0gZeU0cPt9kh3oUDNClXlhswZt53emWqir6/GDJGcIrNO91ADwP3VozRu4xyL9XomSeGgkflaP697JrNyCrNlQSSSronQnRFKr7H6RbkMjkSCRQhIDQloJ0OTkNki//h4JHoTBUFwhMKAKjwJA8jxEqcEA6KuLQpJqGzUhUMwwYogkHYDVqaHPYnkG8GvWIS2aOpJxnwXvuuABAHF1KwqHKhMIHM0kyIyojI5TrewByobAXRBHMg3whY2WcUDmZHarkoUAcC61qYBOAdSYYbRyq2d5HmxeOTM6UrYGfaTgKgG87JoInLG4mBw8A9CMDoB0Kxp5ZhuKqEpj7KrsJbVcGYyjI2WpqEpiPiDSSiqUg1RALqlOMmwgxpkuAsataqgN5VaMegeKKu0MQCwMUN3nzQC0By5kNoXodUDkCQMNNIpChgZXKDWaVADooPVA0SxsGC26M0C1rKEBIgPKKyKDRE+VqRG2prwzWk2f4Bczrmv5P7v4LrvViJ54vBi6SmUS7zKR22pYgAHUQi3M3eN1QGWfWpXLHhyA2k9KctkzltC0ywxSOaeDDMCwoKpYNm4OJcsVAEoGjSPVy45Yt7q7W8XIvOjc1WuVS+iWuWTUbQA/nW0jA5TkxvSc3gb4326HlA3v26HLlf/edqjMBe/OBjVjgRBUmODWVyiXyYYwx9LrpMaRVi+1PkXj2RaaHti1bXA823OT+EG6quSr29O2HSFUJSuH1U2Lev2EKrAGDqRWdQZapq5xqEXakMphz53knhtahppcjTL5rPDDrtJl8tmhQZTmotIyjRcypcjC9P7g9AJ4f3B6LQ5XHpyKuvQvPDgtvI4alBI2mOfUsChrqxlvyGKX08N40npYtATBh+SnE3dDmbIBYQqHRYsXNowZyxigApfiHPI2QJLCNR1q65hEVW21w7JIj0wA0NhnevEIAM1MCKXczRovWjBqqme5ANDicez21bY4Hra/XnIagLR6KWnpMJ7aE8DkpvLNLwf9AwA+/P0u0pf7h4fLq0z77/ndJVy6vPdkH/8A);lineShape=1;strokeColor=#FFFFFF;" vertex="1" parent="1">
          <mxGeometry x="571.557918382142" y="509.4690970526319" width="6.890602503476991" height="1.5322970206290714" as="geometry" />
        </mxCell>
        <mxCell id="3U-C9vwaX2pTOdvYETxJ-37" value="" style="shape=stencil(7VnLchw3DPyavaJIgs+z4/yHqyxHW1Ekl6z48fdpejMjEdhtrXOyq3JbjdhDAmg0AM5B33y6fffx5pDCp6fHhz9vvhzfP90e9LdDSsf725vH4xN+HfTtQd98eHi8+ePx4e/796e/P76bK+evvx4+zzd8PeFSlREnKoVv/z4JMvr3J7+fAHfH+xcADZKTBQQlAJXaFkAcEhIBNIlhBXTRehmQcWIHSIUAiqS8ArDnIIAh3dhQpLTLgJKlrV6KUQY5UhkW0CQRJ9VsvaqSI1k/pJRlPaIWLq9vWdSuTyQGrUvvq8GURl0l1GV9kUHe3x1PY9h2PAsYOK8hBXYgMR5pO8BO7LjR5DygSjepg5iRTBhdoq6ATlMHgGoAQyozGpk1VlYk6cyGIdnQqImyI4Gnq5cydmBuHTLWXEMyJcK8GHZm7tQor26xuqkmKYRM04iV3LW/6qYV8JwfFwOx+hUJ0pgNCPVKph45v0EmA9DtkOcBTcpwACIZo0hYjQbjGxG9PjYnPucoVxlkdVwRcByTGTjFsAlmVeLX1rZaswNUIjGiRSvEvVHdqMWyD4dkBIfUdyP1SrWvqOgaatC1kuKQqw01ykUk3NBhpQwZFBgASW9SLkogZEKfYepJRSNBjEa90W4BzAbIu60og7oVBcSkHHboZIdqCwScxDIuSs02Ckw0os3oqrSeBPv+aTCRDFTE1aPoUlhPEqxDM2hHHOp0O0eqF8Haq4WqBRixsjrtKnthfTPrsxTin2j9kxJtVKOr/3vEz1Na1HTOKoXYm2ypRX+hRInQUq3nR5YO8n7dmuR9/d4NXLceOpPp+815Cs5D3u/sLV0ysdf5E/mo5P0uXshHll+OD8hHpg+Ob3V/w3V8LpX2CC5fCtcrn495aw+vy3f0gqyQOT3BbDhIDYBerfxBz89aHKeHiHil8TJ6iCeF5u+PrXf6P2cudh5XYFKhVdWXsDkVEQ+dkcRCU36WYbdDZ9N72ij2EkCKwGwlzA6Vsggi0twYxUYQtEPZ8JS3EijrYQ20Km/pXFuqnTIPTaMxepY+3paaHTBGsVFwNr5qd2B3HLO1XtVxqjtrrd1kB6MTSQcMzH527AxQpK6ChIJf2Nj1/8D8HfCfBmZu9a8xMPP596cbmKslUxu0gUEGpWHdqiSDkKPVAAK9h4QKlDXSUE/WM/dkm5hc6eXrDNMauHkdS9w6ibAeCTpTmBq7q1Hl17to68xtLVIuE7ZW3ykh9iTSc3Byo1Rl98HBXkPMeZlEOhdbqKdV7E7bXYLXtmXIldfslRvtL/JRJ9mR/KeCypsN/zFiGs0mgLqd+GVLT44EQHTKx2aG2e0YbR00HwCwGVfolASAmjE+bIS/BDBfL0AWNteeAQQ6mPgjoVCzuxdv9CstmXfrDCVvXG0roHw4dNSY/T6/ofqxL2FXAPDj+cPbh+Pd3em73cv/2w91eHT6yKdv/wE=);lineShape=1;strokeColor=#FFFFFF;" vertex="1" parent="1">
          <mxGeometry x="569.947240546192" y="510.2798177752104" width="7.584867741067075" height="0.5803147742275871" as="geometry" />
        </mxCell>
        <mxCell id="3U-C9vwaX2pTOdvYETxJ-38" value="" style="shape=stencil(7VvLbhw3EPwaXQm+H2fH+Q8DlmMhjmXIch5/n2IWHO9Uz9RaQA4JoJu8npoh2d3V1U3yLr35+vHdl/u76L8+Pz3+ev/Hw/vnj3fpp7sYHz5/vH96eMZfd+ntXXrz4fHp/penx2+f31/+/eXdfHL+9dvj7/MNf15wqbkaJyr6vy6/xOKS/+eXny+ATw+frwA5uhQMIAhAdaExIDYBGK5bQDwHlOSaZ0AYAtBcqwbQzwE1uGFWKYg51HqwSmpIzbtu5hDFsrbsemKALwLQXRp7QHZNDKlnFwID1KT7cDHvAWmZ8hAwkssGMMSkR1tTvBpSreeA4L3ztK59efzxJzqvawouik9gEmS5BEOoL3iX9pNAEHpliOoqAYbLIkZ7dGVvuRzkurbm+t6/c5ar1OJ63wZokjYqQm5vaoT5EO5ao8t7Fij4RdgBQR33q1S0HfC+0veAvpzlmJj6oqEFAC9URX15scoGqC4Knslggf2ytuBaOgfAc/qeyWDKJpYVvpn3LNDhvwqQXNnHA8K8KEDkiBvZpSwAnn0JYa6WNcJz9nOYQSsMB0Db+9IYku8ByJUBRQ+JiAmAJrwVLFQGA4awNAB+D7jitmNEO/qEoGMAiPAB6MJyEcTUGSAth7QYGaDEAwCeLNclbSAJjsSAouYAgGdAELQxh0QAhJyaQ3KehhT1F4LrFKNN+7dnrkQGSCKjhL4y/0Yb1WUREAGW3s+havoO2WXiyiRzVgAbE9/rSYfgwt4O0IFJzGFz/u15r7VDMAklLbY9ERtuVJ6CEn0ApP2QkFCSIIHBQqAW18WUOzsSZKaKz86eCpUpdQOPf4pMYbPCQh1+qkxQ2Cfm82I8hRM0kptX+ZZFCZ5XGiNzKYPnZXo2uTNJe0WufPD8UIF/MF8l6QNHMZ5XuTxwQsDzUYzHu0bjiTILek6zeD6K8SBe6PkgqRfvD/x8kOOhYrjjF5E8THEBGk0iw5r5tuSCXP+4fx6sq+IlLrq50ptqvonXB6pbFv9u7OMFilnVRnXJhysGVf4wmNLzxmBnFE0CJCfpEGGTolspBXmgOL2ydIQgHipT9iWnN4DX2R5OQTUthJsCGBbFOmcFaCwdsdAqjC2vowaWIqpxuwNVQNBf8J0BVcnfuux6ZQdVNANA3AiAkjhYViJHAFQpNaOhM0B5KwC8Srrdgfjkwh9DUnPAmmQGFLWskTMUAKrHMymGvhAX6Z+KWWNp6XyBtSmcT5HwDKD9F6BjkhhSOOpTRbFKAHATycvmHEiAStrQZAtzssY+4iZTaQVPNAMuzMJwwfS1uqv6eRKzW5f1LHwoom9Wp5Gspt8/WFsgtSnpFThX9eW5Z40Rv59v2NTGMaDzgFDCVN05J3UBG1dBMMhllKxCkekcALIxAKqAz5n5YhZ6wk/xBVpVOHZWLbC0EscG6NJuWCXii1ms6mXlOQwt+k3hGHQ6zH6t+g9+IQ1uc8w5iFWCL9X6klVKnZXhDTsAwHPQlgaAtPb0JdX3s4yk90iwStR/vRUPRj5PklTxELgJMQHKveMqv68AKn/CvYP5guqxZbNXhVWSrIEQpVRS1/7BjwKaLDIOhtRk1TknTavU9SpFQ2RdiugDww3ZScmmAzYBylut83Xt3i8GFG4fwXCqoYWM5a3zKXnYTMoKujmaTZdad18NtW7V0JkSo33VrDV6WQ27q+fV+ws7ntYw9vkpknT3mNRt0HsXsRhabbrwKaw94aiyBiirCNl0UtbN4Go2t7e9htdq77XaY8D/rdoLvEUKgCSxfFAeDmW4rcd8HQ/KDp6zVdJHYoLZy0N26QpQzO55kdVVSGZv20s7gBiJZubuuaoPt/dtgCE7aaYknhtCwlkbV8S1SV9tZu/Cr92Dk94kafSmCaCwV7Shjxf8G3sXSkm+7l287l3snn/Z3kVY0Xf1vGqCmfM4rcl4T1yhtiz3Cow2bV43O5b1N34osgteuCyqXh5OK3w2rdTVXTnhE9p7AeMqfdD4FFhucr5gaArIXKU2DYlPNuQhk/csvylpaMpCWrIb3jItNZMEonSi2WclK+vWS4xME63oGiEbnr6hfisXLb3eOlZDnjqCPAAbTetlZD2H1wNRF0nyeiDqqND5zx2IMic1R5WpfJb5NIcktV3ynHx6l+Lie5Vylc2Va6S8unYbz1S5NZ8aK/Lm5VmBbARMzbKkRUlAB7yhyNVpomKOL0DzR/GFks0Rqm2X5Tgnep5D1q125HAKaiQ51byYx9CoMkqyR9VMOZi95JnWTcHZZPPy+5mmq3JQLWs3lwVme0QftKdNFTh8Ecs6oukJbXugZ1/gywK62umZM8oEiC+0bi48DNmba2aDcR6HU4azVyqG7KccXNoYMo0eXAsZ6yD9cQDZiyc3APZqix7SweWZIePh4HqOVokHF4DGynpnzMdXjABQZFxZztywNADWW7Pe7LWrdGN3mA/p9FV/nwGCASgSSMWcMWhSMB0CVAF3MKQqLX0w6SpL3INlvbFnaA1X9OUC6xpF79K/9H7bDwDwx/frdB8ePn263Ma7/n++foefLlf30tu/AQ==);lineShape=1;strokeColor=#FFFFFF;" vertex="1" parent="1">
          <mxGeometry x="572.3852519666225" y="508.3408388872464" width="5.923898561773111" height="7.115482081259158" as="geometry" />
        </mxCell>
        <mxCell id="3U-C9vwaX2pTOdvYETxJ-39" value="" style="shape=stencil(7Z3LkhzHDUW/ZrYVle/MtSz/hyJEmQzTooKi/Ph7AzGq6eqL7lPizgpzR840pioz8by4iX4p3/36/odf3r3k/dcvnz/9/d2/Pvz45f1L+ctLzh9+fv/u84cv9q+X8v1L+e6nT5/f/e3zp99+/vH1/7/84J/0f/3j0z/9L/z7VW7mrSSXyvt/Xn8yyra//uSvrwIfP/x8Fti3Ou8F0tbbc4ExtyFP2LcGTxh9m/1OoK+tTxCo29rvBeY2FwjYEqsK5AEC+7bne4GxjfpcwH49hz7h9z/xWKBvuXzNGvyNp+7SKLCGFNawtkbbmrexq0Cmk65bybqGTtvaH2zrpCfYrrd7AVMWOIdhb3yvfL1tndW7iWrULcErzbQ1OWkzKTg4s7gsAm/PfCbQ71WjzWMbngnM+4NrbZu86JWDAG3r3FrXV+okMLbSwqLBHkw1cg3bSrrUtiQG1LZMTmBsuxhQ3xIveiYVyDtu6+8WfBYAi5slrKFvhVSjbWX/qlcax56cdoksbq5tycHVrcIrrXRs4ungBtnDPJz7STUGqIYtut4/oa2t8jmoek8+adOl+11qpizgW83PDTHRfjiexwIpvJL5QjgHM8g9PIG8d53q+WwNC7a1miNbuq0LFl3sHMR7m2uDJ+R1OJWTLpHXyPYEyQT64doeC+QthbBLyUnejzc+JScJtDUtDVme/oBfykktzuJqgm3N5fh7J4FGT+hqoiawYA3F7OF+Wy0hKqCtdtIjq0Al5TMnsAcBWEPtag8mkECgBVfpuwTbaspcQt5KjswcY5GD29FE7dc9pD/0SuZmdvGt5mY6CMwj/zp7b3KVlqxLyKpHUvc0TgebHvRKJcTphMl6jymcvSRsq/16iedbGNhNNcSmzd1nWEOtmqybq2ywS+UtKp/jAzwhzxBQ+vHMZ36p70GA/FINix6HDT6O0+rHLtbcjrziHE7gnPNRH50OgVxGUtW2U97hfdLx2/PnwRR2VTt7nwUn8Fajnj4/4Yh3raM9I4YD24+q4g/uz66+wpUanMse9mccXv/Z50O6QHZsnw8pUsX9f6Cf+PdrMAAKavtR1p0NBtz7fqS9p8+To6uPPk+uN+h/R1dtBizlyMWCXeNm2FESGIdC/lE31xS5cR0CV12jE5pHBvfMVe8hlSer9+ASklQqnj1mTxWgbbUIWKVC2rloqwHE2BliWOpKTYBcy4ploXk/8F2rqzGbACV4a+rB9YQ5pwnUoQKUypuAgklpG/wELZ4TOrC1tEKy1IXswQRSyHUoE3GBpgIEubmAnENB9V4hKpsApS6+S0MFKi06VtsF6xc/6aYCVIO5Lu1BgNZgTqV+lUANAHHdKp1D1vLc02ASiHlzYyDmETCJAlWzWoc+yWskDSju2qi6mFrPW4U0Ce8NuMroWCGNN0TuEPB6g2CStc37Rds2FDjpHkLWnNidcPjr/hzsKClN7WHR5m2pFWACElAWg6ux4DH33CETcFh+VwFEY5MCxCZArtKKtjHDE6gl047c6CSADZNxoLunXUr0SsEZ2znUC6BetjUhqDezZsSmS4meEOpI11YSqAp92qooJzYBtely1N/PBHoAuRevoYVKFbc1aVupDkYMpoasMrAwGWGXMtfC5ucEQUsDwSSzONGltKNqeDSQvBXL+R4SMu5NWJogxds4yvtnWa4k3on1wgQkSHt9Q29k+eD9Csp+lXhL16ruR+7+TEA8QNsZEs+aLDVuaHouJcnSwJLbjjkH3HPSE5pu6+Ai2sKP9MU8ItIuTS2AHOPjtu+QqN6OOP8smkhz/AJ/tmgiUd0zExIooZGWuf3+qL1CeYNHE/FiDLrbrgv+XDtWTBYcJEhXrsm883Z/0qUfRvs0Q7zf1lKQQmBlogTpkhBBWElTe7NpOjiLsIKZ2BN2SJYshktwKBndjGUJcnC2S+S6rRbo99vqbSmqyaYCpZWdgJVYcnCNIXETGKHUJVDDBLSeGdiqS3sA65x7QQextHrwVP1CQJ4wMac0gR5yGVqECWi5sbCzbAICtNys9unJFRVAVGNppnEjLz1TppVUgJyra1/w9xcwSA1P6GSjUzuat8T3aTXdwqJpl4Jjmhyo3UaDalCNZQJCkTEBwk5doKkAIjMtKN/AMGqur4kBFayAHBEQL7CYJ9e1IXDLV55l3iUg3hftQ+lC1YXEOn9jye0ZjvI3vt/W8uafH+O5Q7MTC3JkD62oPZSEHDNbogRqC3JUiVrgl46mCVCyXrOyFAqDp2VpC7Rwtl6apsYWFRMJJG3Y2zOR1jDVRO2kyc040+L+4DyMwit5f+9+DZaSkW/1hpqod8XcIQXEuHFkT29J5BnqB21NPVD3OK1MIf+xkoLSylRCM6Fj8m0Cihj3wy08FshaKroAPSEQfjtTlVI6+qRnzIEWnQLa2lCXUmAeOXWPX0kFKjYTUiioTaCAAaVgcX7SfA4CUpjzJJKmCTwA4mmXgjPu7FtTCSGLkfsUYMFesR4wgRXOgVLj2OQ0gQtagzK1G/pWe6U5VYBQBBOQAqIzEy9FxkvHHk0KAeXaRGt8Aql3fkBlJQDL1FsYwr5LbA/KbWpXBqS+tSJS6U+ITR1SvvSgC0T1Q4rkwMIt+a8WKIGflTFOm3rrOXCFklqgIXAdlwLht3H3IS3FNhsvOqfA1OAEK1dlplbuM+WhT7AcjUqaG+7xli9Nzsiq4nb2E9qlEvrflqMRiuBvLJAxExdq11zDkjoSaIFRZALUCrb8K3V9JYKl/dqBLDpjB8UNUsoBzjUi1F8T5q2jH/b1JjCZAJ8DgaSh954jsP4T8tlXPlLCE/yDAk0DygXhdw0lXlspSLycFVvBjGN/Q38Ogf8H9GeqwJ8N/Xljop7ATYIpVqDjOnzKBhRNFLH4GahCg1UjkmASOmN3AkJsq+wEHrlKShLNL0mzubK7X1Xz1jKQBLMi1FKQa7fCzYVywRJYxxJPgZ20dfaAYA0sLZ0TIMlJQuzeiTz33tsvP1CMW3o1tGVsooyuu9Qmh90aql2uRZ2mIAXHRFdp5iLFqxsQ8UFSuJjTseAYAaD1fYM19IAkzsQCoQs5y9UNEnXGGZP1WzF8fiViLxVNdJ31xU12jdMV2Ro34ujJkZG29l3bx40zAe/yi7Yyouu3/SIVga/+SK6ROWQ5pzjSKSgzXgp5eSnIAnoFC5OZuKsFYXKvO++90gW9o2orOKHnjtfVL9QopEoLiX9m/lLnJm6vO0MtsIroApl5B7lmZ7UJ5WIzK9hVB/oLpwiI3x7MUOsa0v16F8Werrs6CraMZldm1FhIEZhNKTP2E+xiVQWwLQQTCzsWZCvjxRNziUJuXw2TtxGY5J70UnTrSvtZvAbbdbHmxdtq6i3NkBMH4Fm0Un7kYoZXuN6+GHBwQC8IINe2aG7ltFOOVkLYsowx0ysVrTVW5ohbFVRfOyLYt97Hm7oOPocZOM/MFx7xsu1ix1QVP/B7ohezFWTASsJXupW1p+yNXsmWKLdzvaPDWbSy2wvzVAMzvGf09yuHawkZYfsVVKNf0Kl6QOETYuTfLtEcAt8u0Tw46f+1SzQtWBynlKuE2+pM85yPVIMa+O5mwugQvIASOv6urRTZA9HOnQCXP9odTDhrxEpzXcOOt25qDZf7uH1SAizjBdbFvc8gQOrtN0vDrUxSjdilbYuHJoXLsQvB36q66p//dpn89Plvl8n/TJfJs861sc9jqy7sZ7+wL2H7toaAeAqtQO+K8dwcnU/BdWGeAcRkINaJ4lmfQNVzbWGiReOGadGg3DqDKunBSCW80jK1BdUu5gyWcOP+AicJrY/O4JnPwgoZIZnOfMQiQgQ9MtIaX9ZIqny9Y97sBb0kFuPo3z8DhwTP8+GKF7MSpQbbGQ8LFyTtTywGAHXKU0FSkGmr9BmsUMSRSiNMqmpY5fnQpiBAzcbSNA0e7GZK8JOjMS21K+NgNE5dAgPHWdJgojE0j4qq4YQaOWmeb5cigWAhVSStB0PMCNR3rFZsmkGMHO6dmv5SZy8vbZhaok3qXcK4FCc2QXyIE8PMVVI9X8OEVXP3lJM43Tg0TLFXkrR90wqm8nZMUYBG7kW/5K/ErrKGRRPhcgYWUWOu1drDnMHBAjnwurkVuGrgse4YgUxA1bswCSIH5ePJniuSFQc2Gx2ukpA1eQTlCNX2wvvwsykjzYcg801vrbYXauvcH4xZxj50GHLZmV/vg5xbEOC5m8pjXehbfQJFmJqMXeIULvM17qVHmnZGixvhZpFPuuX78HG8L6Y/TXlKZtM0cdgBYvEaPMhgBCZUyxiyZiwHEjqBGejyJnAx+UB4GS1jvmQGJECM3/Mke2hqDxfjsWZTTvQFrjJbQDKZSmiLVhSwXjXT1M10ni0daBZuQDynQ5kfF05ghKkyiZtpYeir2SCyV8IdsosR9rfBnycBHCgR6jgTwCGXTUsafwK1lcKM75EwlfZp2KGkQYES+PUdA0qPQ8TaEbmfpj9BW9G3pgfXR5AUVNQvdc7uTZfiBG7KjG+82JMAIT/zLXc5pQ7Ys493NRZi1jMs+kZ1euY1UihecVRh1Svxt+8KeCYghJrb0IhnAnrdNvHwg/iEjAixryFMTaY+lO/SVAHC7GIT9OqbMorGB59pzFCLBMXBveUZmg3XAj24Snylr/56kGsB+8ft20h++vDx4+uXmZx/r99eYj96/eaT8v1/AQ==);lineShape=1;strokeColor=#FFFFFF;" vertex="1" parent="1">
          <mxGeometry x="571.0530699415931" y="504.5089291274676" width="11.53188482140421" height="10.651499076085416" as="geometry" />
        </mxCell>
        <mxCell id="3U-C9vwaX2pTOdvYETxJ-40" value="" style="shape=stencil(rVbLbhsxDPyavRISqRfPafofAeLURl07cJw+/r5cLJS1mPX00ttaHkp8DIec5OFt//S6mzi8XS/n77tfh+frfpIvE/PhtN9dDlf7muRxkoeX82X37XJ+Pz0vv1+fZuT89eP8c77h92IXKITZiMOf5UAD6XLydcEfD6cbfCRuA77Zid7HN1IZ8KVRA/ebQ1IHg9woFuCQUs2DQRL4ghmEMhgIY5eUypgjHIIIZR5DoAzwKVAZQ2aqIOJsKRpzGqgBfImUisMH4E9lUnZ4rqDEQkkHfKSS7uOVKYwcElJwv1aqI75SiKDA4ROpY6CEPGq9QB8G0nOwbSD9vg+D2lm1naNMMtbAaJgzKEKmMCbVshqBS0WoRm9QQJoyU3IGAdYhMYn6GBgELYnKWLhYqCCD4IO2OiSQJWvN6OSLFD0QqTk5glWQ2jOyUjUDtUuFmm8FAfhcez7WVkNiVyze7PAB+N/sOsdTCqiVjZTRxRuBVGghHv3JXe+38eqlTvs8uYd3HI3cxeD/GLRGdazYPA1ACK12ht3MG8Q5a30eXbKJxqAxq8m50zvuvb3NouZZ3biPiG2D4rOkkRS9kCmOWTIFVEC8z+KimRowSJaTceiY7CdQOFOjNtbBVLwCbotpz8jVmY1AUVctWccInpxztxT/RANBxC2fkKTaIGvso45IYUhd4QpVQA32u4ImWGgbrM4fhkNka99swP9/76f2sS63L4fjcdmNb//3y7AdLYu0PP4F);lineShape=1;strokeColor=#FFFFFF;" vertex="1" parent="1">
          <mxGeometry x="443.12466454394166" y="516.4656378622301" width="0.602410418795789" height="1.9755554474768147" as="geometry" />
        </mxCell>
        <mxCell id="3U-C9vwaX2pTOdvYETxJ-41" value="" style="shape=stencil(7ZzZkhy3EUW/Zl4R2JdnWf4PRYgyJ0yTCory8vdOeFzFwkX3adthh+lwv1Gjyi4kcrt5kYWX9N0v73/4+d1L9L98+fzp9+/+9Prjl/cv6TcvMb5+fP/u8+sX+9dL+v4lfffTp8/vfvf5068ff3z7759/mE/Of/3h0x/nL/z5TW4M19OUiv4vb38J3qX8t7/89k3gw+vHVcD7VaC4PkCgubS+IWYXPAgUF/IikPzxl9sC0VWvAqmDgHexr0tKzjcU8KtA6C6TDrbisApUV2mXbMXbtvqKAlUMl1yhN4RDxVMgukRKB1fjKhBcJoHo4uZLo6BAryrwd3e8LZBcHrqkEEEgb4YLrgcUKEN3qZMO2Q15g7k32aG4WNTSjdy7HGY6BZrLpHRyfQ0gizhP3moBtHprOvftnmvkVYfsXQaB3l1Z35Czi2CHfnr/uaThCrhGN+9fAygON+gN1cV1W6OFKOmQNWukesTgbYHovOxSdQ0E2jg28RAoxQ1wjdZcXEO0DNdA6ZY1zZhABNdoUbN3sZ+gN1jIrwGUz/R8T6Csu2SG65BmTCCJgEdfqqcjXAKIIs4EJIBmjYMkMN8gAulIC/d0iLKkeJjynoCme48FpVliXN3bnAvqiT3fV8/oR/q/5xhFnycjtHT42eV52FJ7vg95vtHzWTPMcJW8yBLMXqxog8qRdC8mK7Si4qok+ozQylSoa86L8Ug59/bIr0tKEfO2GVmi2bIq4Zhq4G1dkuVtQko1H/X4kiQzxVo69uRUumGxqvH4vWs005K2jDSBD1i6npF1cY0C21q3FNYPS959fn2B1QVS2WtsZoRJ1WJfKpULlL7CpjDGmpkgrUb2WNfq5qcGj/n5VuR5dIl84NKvz1Og1a3DCLweA2jr+s+qePv5qrk3HUD33u8XyUXZNRLIKhAjvyGpBrOn4iir4kIdq7L5UJNMwSjVnLqtCbtUl6CilbOAnVFTsOSUfnj9ITCLFuySLaCLQEcMaViorNtqqLJDpihei8iEoWCHbAvwuiRqt03Ar75dGU6ZmSQBmykHCVStaxMSgtImoKAzouHyFj9z32iXquJg24bCOogd7C/UF07kvsZDNueDHGPbGiUeEmJ5ExDnM+BMGDLvPVXEUpvH0ZheBBKEaD4954rlKYC8gkJTOlMABfVWwxcFdChBU73ZYVDWCFpLbKMJGM43rEuaTRgrLRjJUBPxJLat0tt2j0rbiqWBGQEL0HTm1dKjPIppMdx4oENVGnB07EfMTEmWNBA+myO0pAJk6YlMBW97xg3mnDfWRFpHzQKmNSEfExCSwfaVaIwcjvpxCtQjRO4JSGM4uMswAQGrIz5akr7BH2jirg6r0t08npLrlgVaRQCaNy7Tihx6X1A+tp6m/AcFLMw7b6ugE/sLUTHTDuu2Zo9tyfw9ad468k/mfLJLqWHzlqO6RjLkS9uatm4v8y6lo1W7CEQOasnGJhBIh6KGMwGiJk1At5VhZd6IQ2txsYxWba8S808mMOQNgxGW2VUqu/kv+VLTEjTBBgmcjnAKWMSxpQV8V4/chK1Yy2hFS09CeBWYHBbYwcwUV1/qAZVOSetu70h+prCVUX9Q6zcFYlMdesLOL1ZlcKbSJFAOaHGB99SixKwh2pjbn63n6hqWvQMJ+I3ai1gfQtfutTfEDqHq+cQ8myKBqInM6jTSjQchdD6fmObSdno2itSwazVp5XCte8+v66+ZGWvtTkrDajW2JtEj6dY1bVvrTY1AVdhjLoF1QU/dDGIQwC1H/rw8T2fK9vviDx5PV7OeSQyu/ukg/C4OSmxJ2uB2RMrw3L0ryIPf3zFeQJohKHtu+0P+vDOkA5PKdj5iEU+Up1eGsVeE/l73s+cDN9x5XqpZP5H9nefz3uLB89sIwzx4o9ZF60Yt2K813U+Ld8Is46ikl3JPB+2WQOt2IkxcWyha7lNEkj00XZIFNaWIaWNhtTnm49a3hIzk3MwqkuWQRIobgzmOJd4Oer/NR/Ch3CR1ZY8ahr3lab9BU0KaMzGKnXlJM3NJpcnYPc7UIqXMI3FmeyJouTYcnTF0UP6pdjOkrRpz9p0THWu5qQVnbUwHyaeVB1tmghGKtCKtFaNWzBLxBGA6t6SAxims3SD/CHQZWpakagid2k3zzbi1OUSRpg122ZIKleXihjTl+YCS9wSCVwGaIknbFEnmJGNNSGmqAzFCJiC+NFsrEojb4dDA4pb2w6HGS4p6ijF5ArJ00pmnqRXZISuFZN5FIZqyDj6aACEGs7Sczj8S2JqQuSTK3m1jU3gsMW1dSDpx6z0BOUh+wAhNomIbwyJcYgI6GRYw89kuSY+dE2ZvE9BTDB4lS9v83OMQFbD6lYW6561KjiTs1kxADujzAyYiboZjMjzFzVsbEp433lAQj00dBDokBif/goDwBIY1MjQBBn/kOLZkzEsGfwTAlY5tWCw66DXnV2BJcRtLrB0xXzyJuwvWIG81UCssr6EZosEM/mhvFTEvhaADNJM3A6XDdkjXEnYbYZvrnSMd9Iai02RmOCpZ1j0I1pjwh94wFIbOIy8i2raWe5YYEsha2CdXBzUuNiUxwsAKtLMkkXusOSckcyUNCc8J1oVt53Hp0JVosD6RyELz1rA1HJTuzZeqxHRD4tm8NW5gHcfWtUw3zjLnFl7Ch6rDf4Wromr1P8BVDerGnlzVv5WrCjfa50jgZWvoedwx69cIhc8T2tbkdYzH+YWTpHYGtbMA7iMhtEPbyavVM0JfIWob2QqObNqSpHj0xAUwK86eHw+Q0lXn8xpPI1tq15OmitA/eh3DrCf3c6/ECh9WAh77z2MF6c4runby2lGVjDyMtXR68JI4OQZV2iyN0bMdmRuCRIFyzMqdAhHrQdoOa0pkpYfaIXPFfM46HAJEWH+jsw7SRv4fzDpUHc9/NPtT9fRmThfxGwSj1gfTFFUxmNVcGizYB/oMlKBrPEcG37DBc2TwZvr+1kYGt061c5ORs3Zh8xs8MlzWeezKpN5zzP2wzHPMXQW+wTH3cx7ngnRR6Q3/WJGjwwYTqNuoGuUlExAo0DpmjbJhuDllRLuU9cPeOcZE3+sU9VZ7J831fD2FvVjaQ6osTdF6yhgP86sm+Uq04jGrCejXzB35g/n9oyQyzJS3P7BkgecHls8PLJfn/7MfWG54O/Mnw327ySQhtjX4Lpd62IqIOK9DwULymK8nl9JVgEYZatMm3ZSmPPG8JuENqT6vSbg+/w1ek1DUBCZAzbO1ygL956ks6VB1kyZzw0uSI5gJakmgb9fbZKQ+29Amb6Ywut4m6IRoqAh1+sYNWXDSsVPfvjS2fEGAsDdtLuZVD6TD2KDOg5vAwnaLVsSjg+fFXm8Cz4u9bgl8gxd7CSycYw2stN7uFx7dvSfzXoW9u26zhlg+7XntdnDOY2w3MkQsV2O7r4bxgj0v5TPyhnatbpFvS+yKqSJeKDHGdkEPEsljbO0mXvYwr3vUxoi48wsderbYWM0n4SrDC4jwbt8/yS94dGGl/ePrdZc/vX748HZb5vX/6/WY9qe3qzXT938F);lineShape=1;strokeColor=#FFFFFF;" vertex="1" parent="1">
          <mxGeometry x="533.1552257371651" y="515.5631262148022" width="9.139199030235579" height="3.4188052395877815" as="geometry" />
        </mxCell>
        <mxCell id="3U-C9vwaX2pTOdvYETxJ-42" value="" style="shape=stencil(7ZzZjhzHEUW/Zl4LuS/PsvwfAkSZhGlSoCgvf+9IjKum60b3qRFsGCQwb1wyujJjjxuR+ZR/+O39T7++e0rht69fPv/13T8+/Pz1/VP+01NKHz69f/flw1f701P+8Sn/8MvnL+/+8uXz759+fv77rz+tletPf/v89/UL/3ymm30bYVGl8K/nfxlbev6HPz+v//jh0+36tsV8Wt+3VmF93mY7rZ/boPVxy/O0Puat5ccEw/ZbzwRj/4n7BG2r5USQwtaJIO//fRCUbRQgiNs888iYlNtjgj5VCEZQYEu970w8CNJW6AtjK8KlvsWBWxK5xbiFiIeWLdUtJuRq6OcPbANOsNZPXQ+KZOtLkfWR9p+3cf79sFXSu7KVIOsj7adss8r6AIY26lb19wMIzNQ6JFlf6PfbrmEv6yfJq21D5YV22Xd2HCq6lY7r8/m8JkCSl60/n7dsmfjTd7/2op+Z9t/UABo6RpNXOP++GUwjL5G2JgTmStnCknNc5OnM6Gd0jgtk3JvKYPkh8hJli1MJAm0pqdWbWkw4dA+OgPWuWTwQ55t3y7tP0DTiLG9NBEXZmsPWgEstb/l8hpwx4tS55agEFGXrUGNYYZy+MNQbXaiGbSlNZevgM/SqBJEEF9wX0lbhC0YwgxLQoVvcPfotAUk6bbEoAdmDEfSoBBOimqmGGpBJmgnq2S2Z4CqdwcQkW7LIAo7YCJStDZVvfUEk3XfZPyJowtaB9mBsDWeCfDieR6qhFjdQDmYPwqVikgEu1a7htjCXqhNcGRiw6pFvHQQFM4ZqXijpoTtYnBEk55cShKwy9yPeuhnw3nbEMVRbC2ypdJc6D0wLjev1bEA5YZ5Uqtp0rphrmyKMomwdoBrF3JYILu2Mvk8QVVttkxnkkKc6MhMlJee5q6RNuyhkmX0V0VYuYYxAUodyhPpXEpgciK2eYJWSfAY5tHk+8q2LwAVFMqC1JQm7GT2fEVQhSBh2c1HlMwJyAsbEJPEhYjZjBF0IArO1aXJiBOT5jECdwAVB333Ea7fkvUZkAxo7T17L1rE1l7ei4IaWS1eqYQFKJH2hfEYgX7CU62JL50Ob7KlkNYIoMS5gzrfcjBBUrFCWtgpoELBKXwHqrEuVYYAcd5M/CBriEskluiv7gDNYgJJCtzFbLZ0SJ2BFDoVdc1sCfVjdVcEelqqdubTwH/CtL0nnDcEAORiBuJk+MQ01c5EtDZb0Ss2LEhT6QlQTNQLcUtxicF+gLQVN4YwggIkuyGYqlwpIOh4WfCMHCllGIHG6992fPyLIZ7Za0d9BNRbBWb17vfqCAFemrZTdr0OLth4lyCOCkZVL5Jfi2I94+wUmyOcvtIFgTuwqOCs2yYCMIIsj67v+PiIQ4N0qCkqlo69QJgbF2DSKWuqbwFUagZT4Fh8asbVplWWZbL/YkmT3A9199Cji2AITdCHo6ARMNeJZcLlhabmULyoBBXZTbwmKi4Dk4AxobYkCii/8+l6CPCJow7EVTHSByU5wnUJWVCDEVIPswQgkApWj/n20JXFkVjvSGYytQZKTjD2TOJxNNzx0PFTt8BqBPV/b7esgKNj3MQIBEVpHmD9WhVrMe1NpGY8s9cYZR7LpohbXj0z2EUEV782FnxGI97Y43ekMFg0kOYnsBPKeWdwQEMhsBKJLg7HKmDRJNIJCgkvafzCCTGeIGqfXGWhL0Z0hYlYZg0p6yYEEF7Rnt9qQxNagtWif7O6Dxoc+sByIzvNZ6lDJRJNmla2xiWZHkBCgNfWWgqMO3lJVfKkWNtGmOJ+lDhRQzJFJ8WqFH+qSi3GFG9iroJco2tndZ010LSiSalhZJnKwgJIou3cd2tK58Cuahlq1S5lAyiqHelH4JQ0odfCWgutyRiyaooMeW+H64UCIbyIQlgNN+w+d4SKzh+YqFGqkmonKuIV5DQL7zfMJzremHcAe5o4NHesLwq1Dk5/BHZSuvn5GDA5tL1OP9RWbqA5lmRNB9ahA0Rorgt8Pbv/cbTlGHw7+DMRkfOApuP+gyJgpRCKfvXcBbzQOo7k2vEylqeeQlP8WQyohExqklhUTlu5mdQZ3uzR1rhX7b0NxwLWeMwUBSl7axw8JzhxtFTG06TJtM3kaN1IUsHPLvutQWWfAoOm00crWqGeqGPpgjXDTOmbxCT2E4BezcQ9Xw/HkPKoqOGcehWqp4vY/0aNkrTdj4PmqrHDKvKg3NYea3AWMGmPMJSI2oi7FBECzCVF7JPOoqx65IJnDzNi6Tbt53ISYSbnK3qY91gfMALO6aFtPSeyR+Lxyfd0D4s3+SR+aC2F83qbN9gt+NnW5S168XvjD+tCc/rC+VR1iutDnqkXHhb0UdaDXBike+sLi057jvdKjRG2XXXisqCX+hUeMbv/scf/r9WuCk2BEne8cPI+YdG6uN+63uCQ67bX1A/lKDtQYtC86RWERnnK4qhNtjfcz9gz4leu7Nn8aV3suAht/cP7NwWIVscCqEW+ECwO+U5PQwJJW6IMRXDdtMRPmiC7HHRMHlrMWz6PgAG/VQnUwttpdR7Pjetev7wUnWWNQh7IMhoqMY2D6xmKw1C6aVK7JU3KJzdXmYa90H+E8AsXWzk7UVcI1YiWwYP2zWqwRAspTosIFJe6W+giFkcxpjWcRQdJDl4bV3nK9sqWJYxApqO9dnQZGYQSrqh2n0+Nw9VLELcWuFZm538atiXSWtFVYZJ+r0yAOsv4/GgdM8NY4SG+Ng/9R40Cagb1jfhGDlvgrPjBbRflaxStLJunmUiSaXzHlk6sRCyeiMxRtjteCA/MrZAlgzZC4eQ2RdOGLbN/NkAJlAneHFEj53oYUdrZ+Z0MKcU8Jb7IZiqIv0703+RLJYdW1ZwOql5234SYoKUlcUJlkAoEFlxV7aZ1TuKzK1zOCI2/zjccX3uYbPcG3N984kxJg2zequ+8BuxspKTraGrZMV3XvbJrm31PVBOtivjE1xXvWkAIpX3eT3XEvcu4TTCVYA2B0HyQphFb4TnLOmnuvgAJcWtfYJOwWbAxmJ4erof+3Oy3/8VRvd1o8wbd4p0V06eLK1lDI6+pS2FC4aF07+0NnsIyMcD4vB8vIKgmuaXlcLu7ldBVciQi1Li75goPubQadHV9WTmC9H88K2L0prn2TuDwu915hwYueTYdGIsOnZWrBsaZnCVFPCjHbFwgjs4gmKJwZEM1pGIG6mYlZZa3aBswFgZA1UOZut1I5YMm/v4tNkxcW9yWwr5BFwP3b2wQ7wdvbBI7gG3ybQEBm+wLFhzuqUfeex6MvyOjJ6nmQHFzOt24m0OxD23syBwHPB7ah2cyCCsFEe9SAEi8erHLQ45qTJgIHDNoZCLvvrv+w6i5qELrLF6sdRq/juFxjofnUUoyunsYJ5LtvYvEbWm9vYn3vb2LR/r+1N7Ga64HwC1fuZaXIz1QM97LS6luSxiVX6HF3bKF47tEtgrhGco6rs9CqZmDmGlHruvPWvKUZ3Dju3jm6vz67J7RQLaYrhiNOMs2heQKP2tl6aXQlbPlMB+klTMune9aGp9HnVLPPfBtgap+Bb3HcTMrd2CU9mjnVbhr69elg2GPa8NF6Cfes0i+3BV7W46OfDongWyu2XrFzfGDnDz9yerne/vDyouovHz5+fH6Q9fb/9QVW+6fn11vzj/8G);lineShape=1;strokeColor=#FFFFFF;" vertex="1" parent="1">
          <mxGeometry x="522.1883932412223" y="517.8400465492064" width="11.177689305134304" height="6.3723918424293515" as="geometry" />
        </mxCell>
        <mxCell id="3U-C9vwaX2pTOdvYETxJ-45" value="" style="shape=stencil(7VnLbtwwDPyavRKSqAd1TtP/CJBNs2iaDZL09felu5Br0vYEORbIbR8cSyKHQ1I+8NXL/c3T8ZDCy+vz+evx5+n29f7Anw4pnR7vj8+nV/104OsDX92dn49fns/fH28v359uJsvp07fzj+kJvy64RKVMoBR+X35gCvnvD58v5g+nx4V5psrGPFLv++ZCIsY8UKv75jH5xwdKAdg3CsXZB2Cvf4vffgan1ePm5r0D9q/nbda+Uoj79pwoWf8IVWRfSLLdfyQuANBJugVkSii+TNkBKpUEAI2i2xI+QwnUbcw0Kh0BMvVkAWmcahvQqdooaBxT2wdUpmjDkJRYAgBtBegUwApNeVYtkRIF4NZWKFimMpMAajfxkVayNAapmahZt+YAV5BC2QYuV6oo+WUk1wCURBFsqevfNnClUQFx6IWSPYOGksGWeqNkvaSRSQigGR0soFMBCdQ7dQsQHIcYZs2aEUIF7amPOA1AV3oBMimArZt6hjqmpy42EL0SI0AbOT8DZKTINqBSthmkm4Rn0FDbDFo4bhuRR4YtlkC6ofSTFSCiFSI1S/DJD0AGevD6rcdCKaQAlxGdhx+2c677CqSPeIOv2QqNqFsx+6KVAWHsVhnUmQEN51wbKjEDNKmQbpQV+yIVBGDq2QPgCol4tQKqEFOkxZ8BVQhZJbVUiiAhFBCtlKmio0NPAHsGrRmIrQpwKtC0FCMVUKq5FTRDkJciieVS7aNQ7gXOlZQqlEADpNSIaQVAKVq94OuWUAOk9HaVWg8taAUZTpwBBXNJfeJqkMBKPem945I21shL4jsmJV9C+TDX5QW9I1qh+jZRY4/orepdVkXujRT12hpHL7tHPlcVpxzE9HYJpEIWUQOkcbBbUqlsOOOCdat2Gyjj3g34aE8+2pP/qj0JxA6gUoamFBk7numaqaEkVaVzRauO7mBvcJKV4CP2aUo67avzSLs3/LkRWecgASPyNF7alCtlTHd7A6xrTwqPq469Ebk5QBh3NdtDuIyLoXlabFC/dcduNMsFUqNEqjYfMsPCm2V0YDMgDkdvA7Lv+rgPOm4Dgs84rlCOuXnycR7atndj5C5DOMAWK60qRGqUAZdS9vcCiSFbk7Lf5kMKsNuYbu1sHKLALUUed1YzYL7421aNIRHLSyxEJd/+qD2KM/tLU7VH3F4p97R/dE85dH3xfCTc0c9wsUBih9HnLG4FBZAojPDM9gxHjeCb7qiJBva/ajFiGB3snr2bKOGVY/DKUuGltbLXSR0VdGntU1hVA/gy+hrLcLx45/38m+b64d+rgLvTw8PlTcLyf//qQH+6vHbg6z8=);lineShape=1;strokeColor=#FFFFFF;" vertex="1" parent="1">
          <mxGeometry x="717.8295066290377" y="515.3313756792768" width="22.077624013894965" height="9.586458636432454" as="geometry" />
        </mxCell>
        <mxCell id="3U-C9vwaX2pTOdvYETxJ-46" value="" style="shape=stencil(lVjLctswDPwaXzEkwec5Tf8jM3EaT10746Svv++qHqoiZG3Sm2xzTQJYLJba6d3r88PLfhfc69vl/HX/8/D49rzTT7sQDqfn/eXwhqed3u/07ul82X+5nL+fHq+fXx6mldPTt/OP6R9+XXEtSnUTKrjf129ylhT+fvP5CjgeTgtArdLqCKhS4jagVPE6AIqKy9uA3KSUEZClegJw0toAqEGy2wYklRBGQJXctgExSooDAHlrJAZVySPAOyeOnCl4KWncoklN2wCPM42FaF4CKYRXaX6M2ksieQWgjNwoyCuJGoBkyBTFk7z6LH4sBEoTK8mSs3lFaQrZISDoEYDSeBJDKJ0JHYC/CKQO6kVHgE+UfZp6g81ZosxIoNrYQJxJ2a+51/l+ewM08EgMX3n/RMskZK2y/mn957kKqWftNkBtS8fQhep2UqvEMUnYMxNygwZl3CFlGkNootmSWxmT1DYohC8WSu46Fg7CpyRoX3rDzwCILWkfNKhvFtAINZq41frIqCS6ku7CcmSrVmLf8eZ6t0qp6xq1sd6tplsjzez6aef1SlsnSBnPk1pvjY38mAqn0jO2kX/TyinxoaA2AACSUgrZCHKvydacCmOJIR+RHAltUI1h8BLZJASJjD5GWjQA4jg637EkIUoYs4TBxsqAoKsBJBo0BDSNClkwV1hnYpqbHSo1PdB02zoImlA1WwuDE7FCa5eeRciO5Mh3Uzev91RP0ZrjeVC0QAJ2N+SXnd+vfKrrVuDj60mJk/ixwlNrsvw4W+EILWKA1AfYPDThjFlrzgeeAUEa6zSIzxgzOqMQluL/jEmFg2ukyJq7kZhNKvX+cTaYSzPFqlCtWADAkgTvElYxK9kBPqI5m9XIYshWjiJ6gxwJZse0ZnLdSN/OausnXoydQKg0lWEUbTSbskKvYoBaMEkFwDiF+o6dyt2pLG8jPAbrLQrnUrTGHIrELGEKtqVzpiqPQVbNpPLU4WHMBFO4QkWjqmUr+JuJytdmRxuiqoR8uDSa6zkAzOI13N7TCsB2iN1iLo/ETE+2wpeUurxW7SxBliqhN67W9t4JdrEY2somlT4vNtR+ZT0TV+9pC+NiPL0Lt2YnLsyqZ5Urdj7k2XVsFcK4mJyox/jvt0kfAODh38urp8PxeH33tfzdvuzCV9cXZXr/Bw==);lineShape=1;strokeColor=#FFFFFF;" vertex="1" parent="1">
          <mxGeometry x="738.9691471168687" y="524.4992955010351" width="8.828337735858746" height="9.633742982585794" as="geometry" />
        </mxCell>
        <mxCell id="3U-C9vwaX2pTOdvYETxJ-47" value="" style="shape=stencil(7Vzbjt02DPyafRVEUdfnNP2PANk0i6bZIElvf1+qW3ntoc8YAVKgQPdtc+I5tiRyOLz43OmrL+/ffLq/S/HL18+PP9///vD26/s7/eEupYeP7+8/P3y1v+709Z2+evf4+f6nz4+/fnz79O9Pb+aV869fHn+b3/DHE26MMMpEpfjn0yc1iP79wY9P1394+Hi8vvXD9T2kSq+XdrheUtBIAPZ94wiooRUCaEGPT5RiKGwJNdR0BOSQ2R3qeuINYKtigBL68Q6qoSUK+GcTN4BtQyeAHMpxl7KG2DigISCxR8pB5QjI62TOARrG8RxyCZIpANdQQuMAOe5SriEyQFq7vgewRSc86flIzFolDEEAPQcJpeO2CttWCZrx4EQoQGBbJXRmS7KOaQPEZSy3AOm4SzpC4gB15h0ZawjakjlQZ4tOy3I2QOTnkMI4+oMRWePmnfQIaKGybVX0OKPWzmzJOdDkYvZIRltAZEY8HNAbAgbb1oIkYI+UOPM1Bxhs0eaQBbeVnrQn4x4Gp/t8vIOZRuKPVMC8zWl5fMhgfImfQ13usgEyp0pbNBifeRwHlIx3iPyRIoSsvszxZsgCIkvcvLPjVnMg7g/5eIciITNAQiVQtjB5DogYp0un8aEPPOkaw2CAFsaRjKsRGTm4XtGB6nb254ASMtzBDo7dQVHxNVkGfw5IeIeWqQN1CfF40q1Sn24DzXt+QtbQOgaUeU+yS63hog3QOQCMz7ZB2RoqnvTcN7YGc1FBAFNkzVGlraGSKNrK+u8NEGmMMwBoDTuHizsIHFznB1eQZua+sW0tS+FtgELF+nykI7eatVLTsO87nkMzMcEX3ZwDVbatDSNQbdRFbdcTkEAJhTySGQKIE6OZTLbVSECO51CFBpSeT6iykfhgRAZrKEZknCrb0VqL0lTUyFggApm1sjgdl3/t0gGaKRqpgLrXULn2xqQpXUnpCmsQanwW4yQigCqytCxnB4gMoG7Rsjb6ZpwuCKhsW3VR726XlCevmKHoFQDig2VZzIGmlHa5KE2aMopEUzP0HPLSLhugr1TwFgCyLDNvKrDSCrI7+UNTGnF6aayM4pYDAXvXLSs6d9G+hPNezTDWaFgIMTXTGJEVTPwaD4rdnUPTFYhvyZ8OdF+obu0bk+6CIiMyo/vu5E/l8gfuYPfMLALVVcXYALoShJtKAMRJWXx+DsjIGnaUVP44Xprimu2SYGA3c2QZSh24aPMQJh0sKvfjtpoPsvqSGXNyAKbua0ZFZmlUIR5Xk1tDpfXW6pTAaOtkTgHm8lCmMAALWaVhmWJ0WpAqLj02AFu00VaHXRqUNUwopIIAZhqWSIKEkxhX0nKOiJjuXiGe6X3/UMRJTYxASeoK4KrGVwBdcXkPIGdtgXxkBLBMLkdMCOysWRzVjlUBMz+W5Gt1xlHCIB6hRmVgHBYCyKJVsT9gvMGK8ZqW/e+YSdkjRUfHncagWe0BQKVhMTXXpilLOJ4DKtYSLUIw/k7OSbtQJ026dn0X5VhTJKVVsdoAbdUvzwERxbTFvUTuIMOlfkq5TzqmTc9R6RywVT/3eoZEObFsFAQQ73FIxqrAc8w4B7hSuYWAznZJsItijM4q3xKXPtplclR9u+sjT0YxoBh1MhnasBh6kW/UlUbuaqGNhUSMJsY5LCLmlUTuKtIsl1a0a3tCVotK6JqJ164Ei2Nm50wdimvR5lUtO70+YqLeaRCJWD6s1O0jVog2ZrpxOTy80jAe0fiFBg/BcBapqJUVup4vZw+TMH5Hym+K8lRo100XM21mQyOAI55MHyZj87bSIrL79k6LEO7ZBxcFbmeE1i3dxhuLssdx52rXM1XjzMaehwkzb5WRNsGc0Q/6OM6lGq2TOYctF5cDHSjt0kRMFIUuVbBAFqlSEoyGvG+cUDHwyxWtOFLJ4yYi+FIVrUxpYeLkcrbvGesenQYR1/kVpdKoYt5pWqmzwj5W6JJQkd0xJ7QnFLL3TgvaJ0q2xzwO8grLA1gv0Fw6HZ1WLTVnJJKwLWbpFdsicRI7Z278GVOdvDXKbulZqABaKl3ZohuuwbJ7uksdqbY0WpScdALNksgTEUG5WXUd5a3MRUBi87GJ5KazaqP1CJ99tUgHAmZ+B8mU0JGDacxH57dUh1WT1Y0RtULXYNYP9Y7GC0lz5sGXPdkdCm7rTDkZP9ZlaruklnGS+r5ypqMfupXkd4k5myCY3RrQwo22Y7Jrx8xGGUsuMpr3BDClVbG7YgDWz8yuTtr5KFR23HoBMFIBmrkCuEm/K0BG9jYAK9KX4sJhpRrKaKuBtZZQWRY5MI0042Nt4upGAzsfZK0JpxVnG4BYa3VdLgOwFGIWK8CBEtUkdVOWO59mEqmOJbg2QKTnYEzaXTuGzigkrJ01fnDNpTbGrcxF7fuQKi8nCCIA4rrnOaAjL9VOZwltE3GCoFLmm/MzEHbz1chBcoUqVjV4pt5dYKfdxopKoDTaFjOXh3OYA2PE+Hp3pTCeN/bh5oMbLQi8jBwswNXIQUbA/3PkgA2B/vsjBxmVceYdqKEYH4rS4rMfsDefZmNEI+Ki54gma9d3pPuaaUDpzd2h0kXPuA8RKNKafncdqJZowjEHAd2MAktpTGmDi86ZAhbjXiYu10a/TFz6R/rvTVxC69BkI2t/tm0iYefTdE47Ynww1qA9K8EmlMl31gn0c0eWILBSi+klP3HJyoe9oPYu/BWvXlFKz0EKzq1gGpm/rNEHOtDVK15xxcxdYGcicQj23i3pZ6Yx3xSCVymUvzTzfV4t4oCXV4teXi26AfjmV4vA+AzAyqfDzdOYA2UudF9ePX159fQW4Du8esrv8M2vnkJlXQt/cy5hFL0iAcVijhEZPTg9aX3RFx3ySpEWQBpnjYJ0L3r1SjyI9UH7RsPnTPxnBhomNJm2yobrhyhnjIZBnZcphxMyiVtRX1WebUO5M7vCktAJnDGw5S48sx9ufJUmY3Y9GHW6+pmHhvvJZnbmGClO4dD9H47haVNwN5y7SVXOE9/+OxgX19sfzz+68e7hw4en3+zY/z/+SId99PQDH/r6Lw==);lineShape=1;strokeColor=#FFFFFF;" vertex="1" parent="1">
          <mxGeometry x="511.99798156357633" y="528.5603549051616" width="234.09609000657605" height="78.56651719985517" as="geometry" />
        </mxCell>
        <mxCell id="3U-C9vwaX2pTOdvYETxJ-48" value="" style="shape=stencil(lVjLbhsxDPwaXwmKep/T9j8CxGmMpnHgpK+/L11XmyXlnSC3tZezEsUhOdQu3rw83D7vd8Ivr6fjt/2vw93rwy5+2okcnh72p8OrPu3i5128uT+e9l9Pxx9Pd5ffz7dny/PT9+PP8xd+X3C9UOlnlPCf//9Ukvbvny8XwOPhaQ3I1IsFRGoIkCglA2iNJAGAUBELiMQFANhvqVYqcRvQut9SDdQyADTKzQBKIgY+KCBEA8iVGG2p+hVSoyQAUKjbFVKgAE6pZcoWECNVtEIkCRaQqDIAMHH3KzCgRi2DagsgUAIraJic09LHuV0FFH1dLaBRDQCgYbLkk0oNHKsSIbIFFGqAGkVdtE5LHl5dBeQ2ARLMuJwpZgvQSCOAENtIy5KDVwFnbjqnAwnwISXKdkuhQ/Il9k4HTSngQ1Qu2UgHLW0gcFFGUVkAGZJPidBt1Qgae+C0hslxKUTIVmGK3QMEbCkoW53TQg1sSXccggeUCgBhVKEVANWlPvksFIB9njYUILn1rXj7Dr6/8HJlj2LAozws9kwFtAb26d9JwHbYk65SAiRVc/t1LeKgtjAFy9AIU4DH2ksWwx7F46CHOVND5PQZzJAIMlrFmzmDc5fh2Zt57iDbKbj6A1uZ5im7gxRUS6jYvSur4deLzVqsDSIla95gg4lj7RWDI9i8nqSz18iBFilThmsGYh5M9hWyslVvzzCl3Pe1s+AcEXeaDArglIEFtiH2BTmNtrRVPWzCyhBpW8XJtaxB663aZ9sJQ2m/FN5VBsK4fshcRUlw5shVLaNTwgLSKEcci/UkkX3yfSGOQr7Vab0YhqLt7J3dT6ICWKmvgyVOHgtet2+exhm2QVU7YqmzDH5bcipbfyssCqrXqo2XbhB8XwVhc1Mh3L8qzuqzHI14KmmjqzoMA6yi2Q3CCkAzocryWYmgI1LhX7sHIA7paOG3JFBw6vASZzmIZpFOfRacIAxVvGQIS++7Dph9SCOzt2bCzh5Q0Ww+MU91fAM+tDS67QKoY3DdGrW9JtT5BwGUy24AY9iTOo9itRoiM3C6B58+OmpHdAsjUz3CgqnHqZPV8YktQLA+aErBSSEOLbuUpDh6xNZNkqsBZbnIuQ4oXpzXDFO066xvI63s6qB/9z6piYqPdREnSx0LcMRTgFPdGsqEJjaeJMv5hg61Wl3CdvKeYRVQQLP87u/QdSnWq1tGlNQKiA7QcAa1EacF0OExKcDdSJyPAQVi6rirk95iU2W/BBIxCvDDZIcqQI/dX8Y2qPU/ft37PkAf3m6X7w+Pj5fL6fV7fxutf11usuPnvw==);lineShape=1;strokeColor=#FFFFFF;" vertex="1" parent="1">
          <mxGeometry x="492.7544148984912" y="526.3194374001971" width="30.795781510318495" height="9.564793887270449" as="geometry" />
        </mxCell>
        <mxCell id="3U-C9vwaX2pTOdvYETxJ-49" value="" style="shape=stencil(3VrZbhw3EPyafW3wPp4d5z8MWI6EKJIhK9ffpyYLjobFnRICBEmQt9VqashmV1cf3Ev88O3+09e7S3DfXl+ef7z79eHz6/0lfncJ4eHp/u7l4RWfLvHjJX748vxy98PL889Pn69/f/20Pbl9+un5l+0Nv11xxVnsGyq436/f9GAx/fnN91fA48PTEVAtFAbkIADFUp0ArVqrApCtuxkQzastZUszoDYrUQC8+dmGGi23c0CO1uMEKM2SMDp1i7PRJVrzApCspgmQ8QphQ2xW8wzYj+E2IJifTyl7K/0cEIrF+ZRStSL8EJwVPwOiBWF0CON9AxCxQhY24BDDDEjWhQ3wg6vLCkV4uvAKyVsS1AC9/RxAaefvTQCo1mmFbk0cawtjx7vjkgUB6J7Jl6slYTTCJfQFoEK0W5i5VII5JQLOArEV/BX0Bjf7Qu8gtpR2Mh/prbnkZ/KlZlmcUkCIEr2TjDjfFmo4y8JxvlttM1u7VA1fWDUgC134wSeLFEDVqjDag3wUQNBztSVvbTZ6C1HhB6zgZi7BM0kB4qDaDthfcWZ0o2N1VhWgcsoKfUjbqfLNfgigt9LWNITxAIhqhWq9MsCLeIh+mHgAyPyQma0AdBVxwQL5AVqoY7qRp5uuBPz49x5AYRD+TJcogFKReRpKWmcbspNpFyGfSTWqZXWscajQwQalS/B0inxKSoyRRUlbtzSpZKYyAPRWKyBEE1Ejjii/nbI44KBsqkbMHNFep/XdR3v9JvfvzM/BlmU69Jbnx1EcKkpw9emH9Sdnk+ZsDu0Qj0PtQqXnndp8G+X74XnxfhhHh+NkiOGo6XlkavX+bp1PU6Zlz8qYLQsqQMqJayjwRDxuokb9iyQDlidp904bDAOI/O+kp8I5eYs3nWKjY4DKBWWUWvvzXiYbJFjqCYcPT8KrUoNnXgS743yvs4ZbcoB5xR8uZcNocG+XvrwZL+tYHFyZfeVGJXzm28LRrriwaU+n51UtFJZeeRevs2j0lFykmiC6qAxPoxP+e56PQ/zeqKamD6hWE8VKlAugLaCqBgKZVMcIuaFCK0p+bi3mbAJIpXywNTJUBgW5JZRBnUrqIpunukQk+gjZk66dSpRh0yKvsDVPYksAkExvMxUho9tEhrrePjLP7VMKXEQAUFXR4VhG0fwr8qV90HWwQc034pI7QJaqSrnKTSzqV9UxhmV89051icLKEzXaqAZPaz9qMaNOZ/9IE0si9n4TS1v6bzaxakv/ThPbVLL6HzSxAFA/h1NSGTGtfkgSgK43E6Dp/NAHmQ8jSNU91WW4hiQWVH5oo0Q+qLcqY1rjHicHWZX3zGMjaGtW8eDWstDLaXPrXBgWrQIFABril1Gqn+XdNHuu6PHD21z2kIJU85WWZgrFgYpRSKmnsaiXeXdtj94b4ke+V0i6woKUruxTdE19uSZwo2g/m8nzCCXr8XRaRrt6/lD2Cfwhszc1MUfML/PsoGIUTc7CJZWo294DHtkqjG6F73egC8pxbVGBmsfo6TTi5lNqerYAAM0ump7rYEtUfHesoLZUuJ/pSd7kVdgwO67rm7ySmUsHqbpN1+U2pXepfeA3BTUAUQESdxAwQpUnm1onBkRBprwMMbq+mUMxTSPCXuQQEgAqHpAzVKbeVigM8MoPfiTBAzeU3uOUqGLqUd4IwQ8k3z1oGwrLxnZ5rlZYGrPtel744a/f578PwIe3nw98eXh8vP764Ph//rkBvrr+VCF+/AM=);lineShape=1;strokeColor=#FFFFFF;" vertex="1" parent="1">
          <mxGeometry x="516.9634473448766" y="521.2687009312971" width="6.053481323942328" height="15.237668575901909" as="geometry" />
        </mxCell>
        <mxCell id="3U-C9vwaX2pTOdvYETxJ-51" value="" style="shape=stencil(lVhJchsxDHyNriiCO85O8g9XWY5VcSyX7Gy/DyYqjgVw1I5vWthDEOhugLNLNy8Pt8/7XQwvr6fjt/2vw93rwy592sV4eHrYnw6v+mmXPu/Szf3xtP96Ov54ujt/f75dVi6fvh9/Lk/4fcZJI+4LKoY/51+4Usz/fvlyBjweni4BmXL0gNwAIFASC2hU6nVAr9SaBQh1BIgkyQBihIAmlIMFVArgDK1QyxbQ8A6RMltApwgAVSi4kISEAaCMJA5AChQ7ADBVB4iUwA6lkTiA1h6coejflkupUE8AEEgsNVIlAWfIjXIxgBwogB1yJrbUyEwRVDqvSVwBCWYptWmHigHJCygLFaA4JUKz1CiJAqiDkplt4YrSuwBA9GmtYTxiE8ATW2uiAg7NSgRb6ap5CwDA1O0OKqkSgQkMpq3rK+Reo2oDUo0jcnfvMU0dAJxYLcs6RmdiUGVWm7S06IUYpTQMmq0AgQYgPkOSoNPriW1AUqFva0atbUsfRd82JIqukYQwaLWtTWouIFUGCEiFm3xAEWQ0+lYoSglwAPYeLwwtmwfj14IphQCleXSMdX0aKb6yXpxkBBZgapuLZEA+s4+nZXjeqWnq+ghsqFFM0/MhQUvx8Qvgj9ps9/kREI8qLLIvQHtHw1YCWmEUkQKCTdFCITRM+RIoRQs4Qh8WcikBcIK6JTHgKcVrWNcLoFzyo93iEVDCH1sffF/SEqOuEbwkWxgk/D+JFRkzzxXJVJsfbd0dEEIpbZ+f+xjCrrVJpzGdeBICZD9y6cSDKsx9aPBiRkOtXm3FcVQnngB2UBK5kOI7vqUqcLOyDhOgyhpAtE6x9AYQ0nJEyztlSgM7LEm0QtNLTgNnWAZTB9CxETW/5ud9nalQpQuPeWYFJHjJKfo8myVerwzbgO47vvoZokaN3i4anNFqneQJ/beKv4Dgm2ZLvgjqf2hmrP75K0+21RyG2a5igw1c20t3t8ZxV9he3/w9limgmZTHNWCsxwPXfNcPQ3nb66eXCQHGL+sl+m19Bd1MJnvkMeJtr5dxT7rIJ8rP2ixW6xpT/LX1bsjXboy6R5j7E/ShDYB6H7CVOSLG1475yByhJuecMp7qNoqmRoNCmlih1ghp/eF3WO8D9MPbK7P7w+Pj+Y3b5f/+FZv+dH49lz7/BQ==);lineShape=1;strokeColor=#FFFFFF;" vertex="1" parent="1">
          <mxGeometry x="522.5094282139416" y="503.84260636171905" width="60.87596718415049" height="21.889559877163567" as="geometry" />
        </mxCell>
        <mxCell id="3U-C9vwaX2pTOdvYETxJ-52" value="" style="shape=stencil(7VnLchRJDPyauSrqXaUzj/8gAoMnMDZhDLv795vNUM1I3Z0EFwgIbuN2ZVdJSqWk6lN+9vH21YebUwofnx4f3t38c379dHvKz08pne9vbx7PT/h1yi9O+dmbh8ebt48Pn+5fX/7+8GpZufx6//B5ecO/F1yU0BZQCv9dHvQqVb88eXlZf3e+v1qfpEWzvg3p5Xh9k2jX1yaFvD9GicMASpXSCaBJsjvkITkTC5LUbAF5PtkHjHniCcCTTgB4X+sWUKQkAsAO1QKitHEMKEGy9VIKksgOBe9TD4iNAJJo90dKJA6lSCwWkKUwG6pEGweQpbEjVRnWhhykEe6VJtnakLEns6FJtTbA0SFQQAkWUGSwI1VRG+milBoAfI3rmkBwK/NSkWR3QMYxtpYs0dpQVUKlXBo2cC1QamS41R6pZZqiS1wdoEw67qdo8W5tOvfcByCBLJd6kUbiEMvk5gqIUogNcUhyAMSBcAlC5ujd+8yQfUD1QoYdMrfBH6nQOERQo3qjWaRjkmR1qXV+pFXnVkDiXoo+42qf0nYIsEZXFABmw4bepU86HhldbYoipb7WpCO3FqdLYCszGuRzJQtcYkeCzDhAnYV4Px+iZFtFIcZMZlKXbo2OOt1wVBSL1Va4IZMjoSg61cCWZD2c7mpi4fVn+CigFyJEgu5ma3GYLthf30WDW8+CDOK78wTqH2RWqG59JKUHqetIxGvboj7FrW9k/UDi2vND0Mj5RxPdEKKTxBzqCYHMUxIxjVPdJkBnqdtfjwjbE3VKaa2+iAxay7X70gytYWKna2+9AhB0ItiqmzYvTzXbF4qwkmBVilVhD7ewRiBRlWgRjHCVEz0NU2y4yVWdGmYqHcXBVZ1a5lhzFGjfVBXKVTBp24UxsQBXXdVBnxeIGo3hs23py9gO3RdC1ATWtgGQLQB0zXyHsRkBGPuGekVC4WKtp4ZJ/xUQZuz3AWnThVHJ0OKrFGxi729+csOBMmPS8E5F6aXUU18G4dRCZBsAP4gNboPOCeSKGGzkBsDdAYB6lXBV10J8Re78wwAWtyDDtYWBtlSjercCwIzu6rsFZDQT+2U+cO1Fo9Towc9VACSSDW3TzwMQiJdgoh8mKxXKuhmIAWAFqEaf0aVSti4zuos0ih6JQ1nz60rsBxsmN6PeMt+yGyuki40Dps9EjEbfGByX0Iqyfv53GfVI4H7OqGeN/jvq/YpRD2x1XW5O9M5qmaM2F3Ws70abnTZdKCvTeXNnldJ88vf+88+//2RT/Z9w/6l+hxbpVQbyIWwuTNlHkLS5K4EYs/YHZHZNItoVJWzF4Jksl3qm5INUdlfjlBo9pi6uw7RSryKqVuyVfyhqvqpr5/c3c/xa1+usqfu08A66mq33o7y5nVDavaV5ubCuH/RSPM7rmiuDmaiCALZ1w/Q0iMHB5z6mZCUODXNiXgM85sfEo/WOEAgJfb8T4BFpMQ+ecH1QKfrRT6XfX48f377Lvjnf3V0+617/33/HxaPLN+D84n8=);lineShape=1;strokeColor=#FFFFFF;" vertex="1" parent="1">
          <mxGeometry x="574.2925660265382" y="500.94736126154976" width="43.689598952161" height="11.753429753711012" as="geometry" />
        </mxCell>
        <mxCell id="3U-C9vwaX2pTOdvYETxJ-53" value="" style="shape=stencil(lVjbUhsxDP2avGpsyddn2v4HM4SSKSVMoLe/r9zUy1rOHsLbsvhkLelIOtJObl4ebp/3O3Yvr6fjt/2vw93rw04+7ZgPTw/70+FVn3byeSc398fT/uvp+OPp7vz382072Z6+H3+2X/h9xtVMsTQUuz//31RK7t+bL2fA4+FpDUjk8wjIlDMACIn5QqBaAMCR1BHgycs2oGQqfgDomwpsKJFktEHfFAQQ8nEEhP7mMsBRTCPAQy/lQiwDIFeKDACRshsB6oYAAGoDj4BICQFcv8ACCORAHFIhCSPAUwBGp0jVADT2HgDEekm/6SsAOEoGoOQDgYuZ0kgN/WYBcYiRwki+xJCtUWwC6SULAjiqIyBWciCBQrHUUKsY2BASyegltaqAwIUpp6NSAyRQcJTHfIgeXklKJ0IHqFUCIi3RRrpZlQBgyge1qgC3irPUCFqXAFu5WGo0q4DRHHsGLwCcoiwURreqVajysVLNAJgiyAe/3HgBaODAF7zWJZkAgEteerqsAMhL3nUT1wAQ6WLZ3c6DQMcLvx+AjyYitfPg93k6r8wC9/e26KlFyKNat8350Jv8xnk/0tRXWCNdT/XlfKACUtP1TF/6OVWQNloqxiSImKEUx9szMTjOPZT9uOtaYCO2JsHUeGBqoDC63nf8BtPYVBTY/mKvT4uogHdPxCauAlN3Pq88A8ZO13nLhOus5dxb4XXO1DxB+mMuhh62jIkKguv5zLTaM/M6IrfKAs+bPGlfBOyZ8zBRhHlo89z3SnFdHUmwt0xlSjqfrquCDuqsqcg6KDg+eDx2oq+Og8uoSPT2OHC8dizvzHlINLbyysFpQ+vvdB+kipUnRmc4WDO1H5gW7XpLvRxabwUow4alme5H9wtsuEpEM5nE94TYXDhRIfF2oNRMQR1agg2whoSBcJNkRyWNSUbyttqpQYtzBldSbWrEZ0swNDWogjflOcAkaPraAJZZ6DKgTl/QioIajO9T+Ur5oBlXpxCrVh10axuMRmaoHkZfSFOR1thXBOBJ02cS1IXjNGY4KG/bCGxGJYZxyNNyQmPPgBqZbf5o7DOwIUe7VdLYw12D2mBEn++TytaCpZiRVUUo2shI9/pqKEY2lGjbd4s94FJbOpl+KXDOqK7XiAWQ4OBQ2Sqitx3NZUDsgmm980GAbMfuXGFprYWSKa0eDhu19la5ALjrqi2AkWkFz7gKMBOohjKBwCmgjjmtocyoH7pJepUKK1n7hNmaaksE/FaAKRt1kcNbAKMBasLsq1bzaPChDaWPbatVMdLvCgjTbhnlqAIMXVee3uLrB9fX7wP04W1bfn94fDwv29f/t9t1fXXezMvnvw==);lineShape=1;strokeColor=#FFFFFF;" vertex="1" parent="1">
          <mxGeometry x="637.3034894372721" y="499.19585818326607" width="89.70527571982272" height="17.81361927291694" as="geometry" />
        </mxCell>
        <mxCell id="3U-C9vwaX2pTOdvYETxJ-58" value="" style="shape=stencil(lVfLctswDPwaXTEE+D6n6X9kJk7tqWtnHPf194WqISOw0mZ6k2msQAK7C2ryD2/Hp9fDJO7tfrt+Pfw8Pd+Pk/80iZwux8PtdNenyT9O/uHlejt8uV2/X56X369Pc+T89O36Y37DrwVXKJQZJO73suDIub8Ln5fw8+myCudAIQ7xUvfjJVJiE++Jw368jxTFxFeKfj8+BHL2/ZzJpX1AFKrZACSTBydOQmx35DMVBgDdsc0QEkWQIVfKNkPUIsV9QCmUnAEkR172ATURVwvIVBGgjG3I0k61DahU7JZyIcaAagElQGboloYMRXMiQKI0UClQKgDgKdoqaU7Uh6pa8RbQT7XduNSotgJkQO8ijWodkCmBsiqX6gDwsNM5/9MHLTRQtAIGxRVlK6K36ssCdIWBRJU52fYhM2xcYRJrYkpvQQIKzVQ6IEABaU1GAXkScOjKVMqYwQHXqJHEsjUl2GklQrFOnB1snFItDhJNJEBA7Pos6K0WLIjahsGKTPDUeRwn9YO6dgmvBAF9hhsTVpKLqNWZYjCAVR22EV1hK9+IiH5uJLh23yMb2ASA1ilgUIQWTpBvcNtx71yiAsqkY1FsmTSnA4Co/LdjUXMiw9epWQbNMTlAcF/J2wzRNY1sA4ScPUNQtgBnEqGcDMAzBVBW9mOVJLVNbveh2VCPj9DJIoXh/SoQcAI/XjV0Be1Hu2yNUrgpdvvA5CzvuLYZuRnvxvNyahl34gdHmisMWOcaxd7FDO3CtXHcSQplw5QHAsFBpYPSTkKBPhEoW00yNFO9ZY5XeaSv/7z5fxiuD+8fGS+n83n5Rln/P36U6NLyQeMf/wA=);lineShape=1;strokeColor=#FFFFFF;" vertex="1" parent="1">
          <mxGeometry x="718.9700963233464" y="509.70248854608656" width="12.550418557995481" height="7.840799458980165" as="geometry" />
        </mxCell>
        <mxCell id="3U-C9vwaX2pTOdvYETxJ-59" value="" style="shape=stencil(lVdJcttADHwNr6jBYNaz4/zDVZYjVRTJJSvb74MJQ1mAzHZ8oyg0B0s3gJnk7mX78LyZYng5n45fNz93j+ftJJ+mGHeH7ea0O+vTJPeT3D0dT5svp+P3w+P8+/lhWI6nb8cf4wu/ZlwnaQMUw+/5RaAU/774PJvvd4crc07Uq7GPJH3dPmbibOwrNWAvkSIbexbKDACdkj2AO3FdB6RMrdgIMhXgUhbq1iXh5c2bgMI+p1KoFABolK1LKVJt64CalxAvgE4hrwOaEHcDyAnG0AOxdakEqgkAqk9rDRQFADr1YAHKRRADh0DBIlqlAtKkRyQxgM5UALs1iGor1zXTKOrs6doxv3v0MaiTGdC1NUrWpas8vI3IFMQfwYgcSufugwggCC1UdUEkSL/aliZxAQRYawVEV+pCAiSkLv2r0wUQKYNSa9Bss6SfiAigbcCeUAs1VIdK0Qatss1IEYGa3AAQXRNx8y5VxL7q2TeCRm2geWqMtCJA91kahQOVVkC1/XtQA2VJBWFPGORDGi1+BI00oLahzTLeCAic0PrS3v9bo7c+vdMGos+rBtHRCZpFOyJ6hl1AJVddK9NmCQqhAKcgZXwFLn0coAKzLg2ZA34XnSBOo5o3NHkDdVvqkqGodWwWK7nc4GxPxXfjzBSAqHWhcZNXNxYB1NCVia2opUGN6r6TLfl0oQngBG4+hihL3lZG9SKwiyAqbEzpRkAZNgHx3V730gQkzX450a0yAkVrJ7biYYY7Yli+dtEOzM/tIrMkeMXcbXtlEdKKebXOJJhL9oyOcNGLXjG8LOArlU021ABnYFla+as56u3KKvHmQL0fvOy8a64Pr/eqp91+P1/Lrv/39zB9Nd/h5P4P);lineShape=1;strokeColor=#FFFFFF;" vertex="1" parent="1">
          <mxGeometry x="725.8972957897729" y="512.0175719519476" width="14.063196478619444" height="12.471869353731615" as="geometry" />
        </mxCell>
        <mxCell id="3U-C9vwaX2pTOdvYETxJ-60" value="" style="shape=stencil(7VnZbhQxEPyafW35dvs5wH9ESiArQhKFcP09NSzeTPdkCiR4QeJtD5ftPqq6e+aQLz7eXD5cH1L4+PR4//76y/Hq6eaQXx1SOt7dXD8en/DpkF8f8sXb+8frd4/3n+6uTt8fLpeVy6cP95+XHb6ecFqklwWVwrfTL6NKaj9+eXMC3B7v1oAs2g1Ah+S6D+hDwrCAJKHvAxoAyQB6lJgJIEmtBtCKlLEPqFVaNoDapcZ9QFF/Qg3SEgFEadatpVCjc5Vojc463fAiIG3cmhO1IWUZ0QBSF9V9QKwSggUESSTSKsne6HmHl22WqHY9EoPEOc7rntdHun/w64d04lEYZ0Om1NrgvdOkEW8GiZY2CDi9u6NllkaCG+fZ51BJIpdJMuzuURJLfymWLkFKIXyUoG45C2uXPvxy4pkhpbnlTH5ikOGyRgJbn6XYuHZJhLhLllniYodO7o/Ad3tAHNLIjXKW4IirXEvgUesibFGIppfNCXlIIjZAD116FlCdpEQtok5xEQZypbYhb23SWRFoXt5QFgLhQIdc2ithi8rkLUmziYotlAAGaOIKWZNMbEAxdrmqYVaqvSs5ZuJKLPk6Cpm9UqsySC51FEZ7pQYl4oBivdS4uOBKTnerUreioehOSpsoST6NMizj0ABkkhq6ETzkb2MndC95C4CdMLxbcSVWvQcU3nIaLQtT1YHqavlQzx3DHsC5FYErJNIAbFNjsCuBcdYGMI7JDAikjtNKZUZ1OvEMGFS9tW5UY0zx3Gt/k3pAYaoRfPLBBpZ8S78cvJcauRIYpw5QqNwvFHUiwBsvADyBBm1HYINr7ZCt1Evo8J0I1NkW7MXB5dJSYkgu6TnVVoDKKIoat6FoZHIfpxNXusSMBh+6oyhSgwTuZQA7oU0lXcm9Moqqn4yWGkfcGsOmD0bGU9lovu7C06zhQ+ScCkA9fybwHuV8J4/gEwAo7LqTZQuSGxA61/+gsjNxRfo3GwjMtGy6QHvkdabSQGC+dHM5WqhIjMZ8mV0ZLbRQZ5RRW9kLn5AwCCR7QkEFYMnUp7qvZlqmZGjunVsTr7vNK19Uqq3/R1S2/I9HVMKYf3xErW75Xx1R+6xDz4GqxFg4x413yEo2S+VNo4YRVRlN+rzAb/IQE2exJmf4iMnb8OKT2xzU9xTXVWOIz2BFoHhtwJmdNWrRiw/qPRvk++YpIupIZk1OmXK5ajZ/MVY0S+FeqQ1jEwd0YsrmkDpJvqrekQHaFJGzxBXeRrX5cGP1RJqVe/zdbeAGb5gBCDa9R+deKvP58xmgVKfRqLlsHWMK1O54twEo66LCfJJwpmjgooQ4jbY5gj1c6F6xB3/Sjy7LycbSTpLcwPTl0hWBoHN2ncK4CjXrKF5+vcFs+PX7EHx4fpvy9nh7e3oZs/7fv33BT6c3N/n1dw==);lineShape=1;strokeColor=#FFFFFF;" vertex="1" parent="1">
          <mxGeometry x="622.7385123738385" y="498.4328151318448" width="6.557881861125079" height="7.065174766597513" as="geometry" />
        </mxCell>
        <mxCell id="3U-C9vwaX2pTOdvYETxJ-61" value="" style="shape=stencil(7VrZbhw3EPyafSV4H8+O8x8GLEdCFMmQ5Rx/n6I2nF0WZ2thwEhgZN/k9dQMu9ldXd3kIbz7cv/h893B2y+vL8+/3v3x8PH1/hB+Onj/8HR/9/Lwir8O4f0hvPv0/HL3y8vz16ePx39//tCf7H/99vx7f8OfR5yvJoeO8vav4y/Nm5Defvn5CHh8eDoHFFPjBKjeZCsA0dQyAXIzIV4GuGZ8nQApmFgFIJk62xCTcUUAYOK8pFCMFUvKJs8r6kY5YbMJfnreVRODWJDxbX4eX2yXn7cmzQa7aFJWz1t6vzde7Bmet3NQmOLV4z5NjxfjhfstR1Aan7vgnDIbG4wVvvQcbs5E4cpo3Owaa6LwZDLZ0+Nq7QirQo87EWd1fPv0eBWOxK7M2+Tl250zed4nF0xQnkcUzjsF33sV997E2T0BmyXcCRPIn3F7xS4gRI6GWE0R5BAtfyEl6dSYB9lsfOVNEl5KWzxugGqcsCEiKihf4tiZfUAwLfGSFOfGJWdSGRRw0Utz5KU4OG9/H5ppBHCmidAAIM+pgI1raqebqXN0g9XVF2BDmL0UNVPEhXbxiqhCww+W3cK7miDCO0Zj51gKedSqfUAawbwBYLRaUjEpMqAKEohtcPPZklRtSpYJFcWyiH1InstB33sFgImz0bBKkUAGi1LwpeGGfQBYY/YSEsgKtxY7Mvgsp6PIuOxYgxQ34nff6MpVMAfjFCAPTXOWok6VqsgqBxmnchpElpeMUzIHANppZEjRVBkoWpvcOADqkkBJLQnCbKlARTBfdysB3FBX+4AypNlWFJssKKmZOHsJdV4RGWIpWAYoOdgjx/OSvM6Hf/Z1M9pKt+bMmjygTqsvlEEqGyBKuke6xCWWvIjWklkEg9qsqKLVDa7eEijLVqfU0RRsOW01YPPJltNXjLZDTm1Lapr5mnGBbVDSPC+Ssme5YA0APKlzq5mvsl4Ceyte6jYQL0XJfN1Lsw2o3FFEK2KJhDFoxquNAy/NOd1rnAKkpcblUcT2AYVLVgeInC4IZr8sSQCqHVX5zOggQgN9O8US3KqEbkWdXjJORWtbFBmiVTFfS8x8WSuBVsb7zqW0YO/WuAIhy4MaLtilGYbjiv4EkWststtulZVuc3JC0pa2skUpyfDf/IU89Ps+wDML4JtVkWtb5khlqOt9QGEd2jdf9cZp0NDZpEq5tUYm11o1ILCGwy9FeAlfoHAterQFG9JsNIhExTe8lOgLflDVpX1oBLDjm5d2OjkGKPrGNtmZyUC3MrwLawfQbRIph3xolKNFVvbWuEVBrVf6B4BGgHQtpz2Ft5W9JYwuM323IKUx3JrnfWhaneB9jgC6L8OKY2NAVtFauQRhSU4Y3QtEZqNVf/ztAETrbMOJFi5pOOotoRvVF07146zzUxl303A3DfcDabitGz7r8dWEthYe6aLFVoUdNEM5nfUoEWKHiAw7o8K7s8ZCAnKn24jNDRBly14WJVD0CQhkKs0pej8rjM6eoxVNvFJkqXBR7FpazVp2xz9qEnIb/7wBbuOf/2D800sWkXGRZyJddM5G95Kl2HuJpVSlqiyJR+s9yxXdI11IGevjARTFuKhKdViJjaOJVNOnm4hWVsbbKHwf4FhrFC1DY1rm2Fmfft3Opt5++SHPpuggKEm99J3OpsQ+/AtnU5GlAzbuSsaRhEtRHgTl5TLHiTwvAehEG7JR2hCW5lWLxH78RqzRZMb1UT0tKUkyDouEA1WqmUC/60AzASdZwwdu8VEmlZpxlUeJnZfUpZ3AA6kr49DKkg8prbg48rAI0kS1G5a1D0xS719OUavsyHYvNanrJt/jUpO8RnS71HQxcv4/l5osTyL80Nv7zyeeIDl9vQeuDnT5L8nGq98NpMIaZeisdzB7jRE2nHhgCzY/avM+YBH8aDKaiDdoB5oroMaoZAegLFJW9SA7AC9n56Hy4WqL8uQmLNq3Zb2k5V5WP/RQujEvgCYzpzdBlgFqcoHulW6enp1H7SM81+5rn3DM69eMgJZdBs/yNmzjQ4wrG9EbZIqNKGew336L+ToAf5wuTX96eHw83rk+/3++ZI2fjhe0w/u/AQ==);lineShape=1;strokeColor=#FFFFFF;" vertex="1" parent="1">
          <mxGeometry x="626.8326605658169" y="500.33198492434724" width="7.971059037833749" height="4.656357748711951" as="geometry" />
        </mxCell>
        <mxCell id="3U-C9vwaX2pTOdvYETxJ-62" value="" style="shape=stencil(7VrLkttGDPwaXVEzg3meHec/XOW1V5XNrmu98ePv04w8pABS7SSHVDnJTRIJzgBoNBpDnfTVx/s3H+5OKXx8eX765e7z+e3L/Ul/OqV0fry/ez6/4NNJX5/01bun57v3z0+/Pb69fP/wZrlz+fTr06flCV8udnXI6ItVCl8vv8QoLf3xy88Xg4fz45VBUxnZGKQoqRCDLrUaAw1S222DnqUkY5CDjEoMhuRoDEqUTHwY6rdUo/RADLpkNQatSFRigC3ZKPUggW0JebBOdxUlK8SABwZrUaWRuGKJb2GfBiNIJHGF16NYA5XUiUGTbsE0Cs3cqFJsXLFmIGAaWYbzYczU3Ep1GhbfW+COLaLU4JdomcLPlRCcoADvUiw4EIdOvO5N1CUii5JEAAnZeg2vMnEa6EwOryqdxLWhYFwJdZrq2iTasNYgjRkkSbYiSqJFisvD0oACGyQPuczLq0GkRYoVgjUAMwWShwJ8W2iAmZRkeomJNQAzJeI0LkdnkGhR43KwWKplguWWgcMSekZkPiQpNtMNmSFY2m+pIW5sS3DabqkNukIZE5srvJM04kPZET660mDgq1LtllCDibBGydKzN2hsBT3ge9Z4AbVUdz4QeGfwnO6iROCdu4dGG5QEcpo8txoEKcRAi+9ZyAzjpbRy9VqinfaslCcLrSTQJ48cbyn6LSkewQyq71lZKWuAVNT6UAqtaTxPXYnyAgIxVpfpPh9xbLCraTSUSLCUykzTukKZHeNYz4wDiVWYANKJ/tXpRhM3ZtCvoMTYPnsPcpXAoCfBJgG4SMTjMHF5JaQ7gQVajW1vsU5tc+N+l+MYpJP4JB+f+p3wJIuINFX4MWdLs9EJVMGMSQvb7QxuEWLBOUslWMSMYYOZOTqrRKc7Rdn9bUJl3Q8nicXAbmgJEIN/9XoKJVdJw8EGsjXAHBYIfhBTt4Iq1SJjDl1XBVCZFJFa/P1KYpQ9QMFKkTngdXnqM+s3CqbYHCelINoNYLFPlNy4X218EOFCaiB6jLZJwscc7QkUPzB5MPXMVmGsAvoE13Y7m6IidG5z9zNlADbvTrxP+jq+v0yxtAWHCTqUi5NbCH5nDHFowEu+WY8jHz8WSnMuc+m+p1zoqcoYfczLq8GgK0DbqDWA1Ga6ALBQy9NQgAx1gJ26LtPpRLQ1xbVtg6pZ1Y95frU6zQ+oULXF8tDiFWHSpbdYpwEN5jTC6s7MxpwWbipGtwCYhewIOIjZuxAZlTZfPlC9gRgg6GMHJUaOf2swtT78M4MpURX/2cG0eIN//WDa/GETMs36GyrOsT3QyvQa6iu5STbR8QCjr9tS5noN6qw7RZi4QfEVN6YiuzVmRq/hGZK2ZrP1dMbcmHJdmjcVcVxua8ivFRsB0nLa4CQnH2Mxg3anaXkH7WHHk41OaX34rC0Hn0xlZ/+2o0XaTX6cdxHs4P9HeRfB4vr/u4jpFX0XoX4y6ZHOheB219ehKTOJ0nKytDsKygQb4A3nNKqavXZamMnpK4gZEqW6G/ZS4foq+IFpmffYAUzw8/8y8bEtBe8DVGhicil4HzClfUcu+VMSpTp3eU1rmQkdgslWcGn3LY4xWc1+R52/fil+pm88a9WP0Y0KmeVI09UCPRSFAnb7H3TK/cuv//+EAT5s/zZ4d354uPxZ4fq6/3cCfrr8s0Ff/w4=);lineShape=1;strokeColor=#FFFFFF;" vertex="1" parent="1">
          <mxGeometry x="619.4489188993695" y="500.7303876630981" width="7.444795432796384" height="3.6727043037780733" as="geometry" />
        </mxCell>
        <mxCell id="3U-C9vwaX2pTOdvYETxJ-68" value="" style="shape=stencil(lVrZbhw3EPyafSV4H8+O8x8GLEdCFMmQlcT++xSxIb0sztTCb9Isa9jd7KO6OZfw4dvjp68PF2+/vb+9/vnw79Pn98dL+O3i/dPL48Pb0zv+uoSPl/Dhy+vbwx9vr3+/fL7+//VTX9n/+uv1n/6G71ecN7F2kLc/rg+sKdcHv1+XPz+9LMvzutwbK5YHU/yyPJjszpcnE9a3J+PL+fJsalmW40E8X15NCMtyPEjny5spbVneTM3ny50zbn29s6Y2AfAmrOLjiVOAYCIBgqlBAKJJqwp40oT9XTJtPQCXjVVKZ9M8A6owqtsOwRXTrADgGEjpKnXwzngSqWkAfHrdATHwv1bHgDi8cgIQReIc4MZ5PYc7ceCLcXkFxOEsx4BmnFsBSbpGsCasVup7iuAJzsTIAGXWsGUWxJtSOgSTVteAVipAA9x73QFaObVDMikxoKkdCsc0tPJqh8oHB628Ogf45uoa0CqLJBAthyi0KmKH6E1dXSPk8YpjQOCIgxmqCNEIsxKgyaoQi7GrWaGVcr5YTVytFJFtxcHFZvx60jCDFVZKlksPACoJJGfyGkCwWxIhmvDzGkCwm1U7RFNIhzyS5zEAaYZ2KCapcpu5msPQRZg1IeTp4JCehWskRPB6cLCbFe6dLSeB5MfJHAMc51YYOgqRMtK9XQFRlt0cjV3PAYZOagcc3JoEYGgpUuIkAEMXJVIeIT8Bdex5DNjKLgztFaCxDjB0EiIVayIB/KArxwA3bDIBYbjjMWAW2QlIo4gdAwKXLNgtiTRT4jjXCSgmigAqiQMIhlbxUDLnVtgtiHMohbM3zGCVDmBHq9LdDCKmqx3ePwFxHOUZoJFIOAfFuz0HEMyQRSKrqJmkQxkRcgagotjNoHSIfHClSSZQM5es6mRurWXrNvxgH8eAOpj2BATJKmsbVGQC4mi3jhsanPTq3jVJ7t22lgZaJSFS8xtA56UWjFvPAVplpUMc4TK7MitpaEuclyBkEmmm5UHYJgD1QYlU2L37niLztcZ1uoE2akCzDIhCB2etsRtC9cZ9C5IJ7qV8AwXCMUD6xiTzNwA1augSNwaoGAWAONyNHc6OjiYIfQulBOqB35RQDg7n2HaIIpXB/WpmgFM7AEAiVUnXAeCjrrJCQAdKNN1flTOV0ehNgO4V8T7bGHDHN/Ydig4hyn0/z/4MkDazqqYGgBoYoHr27mqVATJ/7wDdZ3WRLAOi3iFuOxR1cG3LfU2XlMot+N0YrYPv3G6h7IoatUWQmoUA4LYYVVz31wFxqyl5uNdZXfR0clHO1Zrn2WDTbRBqOxFLvEINW1FnibriFcr7Oj8hQqObRXAFYqJ4IonlbG9v+IlKTGBxkQBJ9hz4mYoWOJZk0zhp0iHI/hWssGzEUk6x3fD+CbAjoZ/xdZoCg+s61Wg1dr5S5OQOZJtoHwi+Uhrvs0S/77Ry2+QOXU3RrVylFsLLlhrvo1yJBlWNBQBwtIMdyfCsf6UShGZR3SiU7eB6O6pmIY2HJ2h4FXXNla2Uo5x6QYBCgCC5LgSgaUv2evCQ2DWylZUdAoRVpFRls5jdYJE30xbVaEEAYlgJPYI4h9S450h3Rn3Ic2teSlGyb0hM4/vkZd2FxIGmXk6aNc16MwFWj/oCN7yxyZhOnutDLLKw95HraqWYZQBBYiLfMUnyHesGiDKRQQAafcegR9+J4yF6PfqezefN6FsNgPA+6i6Dpj/R8pw5VBkPYWv9QpHEtd8f0DVK1hc1mdNMSCNCjgGJhychyAYCP9PFJZ7YO9dZBHDD0McAx9Qh3LlWbDzawJMsIs5XvuTAE5UE+hUfXckVSX/6xeWqtJ955BgQuE73K3yltOcpsI9jansMcDzZwJ4qHtwknRPgZH1wdbvetTIv9StvutNukpG5jVU6PZ3p9/x0kV/kBNV5jul79/LbNB5CqiTgLJcsCCnbMs72XUb5tYZfXQ8iZvkxCH1qAgllCeWCWOXrA49liszzW7ZIshtzfLWhu4w9Y0sSZnl+4yV92WaH2v0PlquJmGV+Z0e7fia7p+VqqGLZ7lbe11v+9GOOyE+WE3O0ktY5zs960uE4d1p5Ze0462jZ/W539WGC5yRox03umb87Wq4uw3/5q7M7y/HHzw/cvjw9P1+/j7v9nT+Iw6Prx3Th438=);lineShape=1;strokeColor=#000000;" vertex="1" parent="1">
          <mxGeometry x="618.5748420457659" y="502.2517930615809" width="2.18195204547182" height="3.104358695729223" as="geometry" />
        </mxCell>
        <mxCell id="3U-C9vwaX2pTOdvYETxJ-71" value="" style="shape=stencil(lZvZkh23EUS/hq8d2JdnWf4PRYgyGaZFBUV5+XsnPO6e24m5Z0Jv5B1kN1BVqMpa+kP+4fdPP/328UMKv3//9vXvH//1+efvnz7kv3xI6fOvnz5++/xd//qQf/yQf/jl67ePf/v29Y9ff375/28/rZXrX//4+s/1hH+/4OJRxgKl8J+XH8KR6v9++OvL8i+ff31Yno6QbHmftHzm2/J49PB8eT7avC1PR43Pl5ej1tvyfGR4ej3Gfe/lSOn58n6EYctHp+Wj3JbXI+fny8fRki3v8PTpampHgqfHcEridX0vsD4eLd7W96OAGcR0tLvoxxFBlnHT7DgGPb8c+S6eeWRaL2FPWz/BLmM76l1bktggwKZeiWzQiecR7hKSzCoDWrsD8hHA+nX1/m+PDwA6gy5ftdsoMTcApCNFBwwwIwFcSlIMmLVu7LBDN1S0LmG3M3SWUnVLFaDRGdoR7QyybRJrO6ZJaR5pAKD7lqTKSFIaR2kOGHTo4X5XukdNb8YnVdKWssJEccCELQkw7x5Jup+g6RxPNV2Acky4QDm5w5buKzjJrPtl4aYdBTQtQL17pRUkQKxZEaY5gK5oLn6BVqAAa806or1hHpUU17agGTBqZu34rjhphiJblrV2B6Cm5xFtS3KVJKV5ko4LkI8IZyi6LtkBA85Q4nm/LoAcD1GRdEr9AlR09yV7hJZmyJEJMLsDKEaX4m4mN7yi5WIsF6AfGRyZALM6AN+gHd8v0DIW0HTpR7zfaek+0JbGEboDUHF63v3QMpZKb5juW2UspOkanGvIWCIYX41nvHkAdNC0AN2oaj4KeI0q+naXkowlgx5qdv4p3VOMq8UJmXRPbLtWDygCEN8WoN+vqIylgKbrdV0uwOAtdU92BJi0pe4sV8aCihvuNZaxUAozz4ToAkTUdAsn/7oA6RT024B46vUCZKT2LZ1u6wEwwbwF6HfPJ2MpYEstnxfyAlR09624ExCgQZwWwGLcMhbQdKub4joGRQHmPU5L94HE2ty8BSD60/ompXkGgLcBw92MjCWSlIYzMgE6HXq6E5B1VdrSdCnJWIic9HDerwcAEawenei2jN67Jycny7rAWgWYG4DoT8/O+WQseIbi3lvGQkS3b9YqYyF239vRrHwgYwHf2runllJloDeMMx95AFCc7sqp7meQ7ilTFKA3BxA5GZfrvQCKq2AaI7qbke4LXCAB+l3T0j0547GxSuk+gGkMPW86gGxJgHG3VhlLo7pV8Qi0jAU0PeoRTKycgI/qttSZJI7mVFq6b6Q48eC7q5TuG5lGd9MY8T2AvyFh5WTItxogYwVrzPNCXoDCh56e+EnQVOoVwOoao6Ijm8GLiEvQVNSMzu4lNwooApirlNw63LiZ3Fp1KqqcCGBUWqeiLGtmT2m0yQJ6mOXkLg+ACQFFAKuRrU2CacytJjA5253N63x6Z4OwK0C/+yW9M4N5z36y1AvQkFVOxYfoAEoH5jzZ0QWYSLBiCO6YhCBvvF7RHUAsUX82c9UvjVQ9vSuwHkHWNz1lnxeFegYwtv4gh2eaMM/0KoenqtsAqLrhFGsyFxDADiEApU0yP+OVk0u0c3jqN696/tMzWANinNf2GaBkB7xzaCMPc6DDn9PpyQKQlDa6vgBsfW17Q2f7HhsAQ8rVxnnQAzHXNwGFDz03L0ChfdnmBhj8Btf0xAR5HXEzPuICS+rbod8BlP1Os/GlbUvYr9QF2lwf1aX/PKB5QjA5BV8hyhTXkK6vIGhuprJplNM2H+Iouu/sjZ3JtZM36Ek+neczgNFE/UIFoxk9MVt8hqQUvB6qX6gz+kqoHjgZ8ZkxvToj1kckbmwXaPHxd9h3dAAFRf3ZHNmoeGgBSnBABFe5qPNdrCvzojM0v9OD28Frx/YGbruM6rXElQWRlDbmqjyLYpwALqWAdQcd0apkfeJ9EMDcjJJLqiW+kYJ3bAePq7j/kCDTjRvRM4jOraMRvAeuJJ/KzAJ4oeKdGtZ0Ta9CBTgBCdHKaj1hQiAhGpfuEY1PgFwdQFdUUjca2gNyvr7NkKz6JQGKVwXaQBoqIVpHrnX0GhKice9VuKM3RO9AtIbWugqo9oaKSZAAlrO3goeWENNWcaVSiITos0sZi16r8m2HTlzIVippZ+DxiLYlyC1gDUtCtB74qq1Tqbx40atO9Hwtu/deDQXqoqQzBF4AtiUBTHG14Z2WEJttqaJfWkLcGjuUs9eN3deC1ipA3ppTVEusm/GtXikBunuN1Y0FW6rbAEYNmANJJt7YCahpycRSmjJxWnD136wdPHDwUkI0RlY6HzptgIaMTEK0K7qGDejQwU2jlPcA3mUvPEQy3VoLt45Wt3jr4+N4xPCpRwEyAbrnQCViTVdStwhUAnZGy9ZlzxPFWrYBvcyO7I25lksMzwDJpn86llrK1qEWIND0zz4uxNVKAXyCqWJzSjIpdoaCle81J3M3jcyZoo5o1ioAxbi8NUUyT50I4Hp4Z2awOklcM370hrINVfG4ed66WWtOkbYkW7KpxIlDJDqiKS4NHF7I22zO6/jnM4BZ65rdpjcE9xprhJVmaKenZWtQkgFWKU8FmyJpm2tJGQf/U9+2lPDQqXupJSWeA25O1hOPMaa6DXtyw1kAy7LixKC4hHh/Qxw8Xp29zicAfq2R3JHFjpMCkoldoNiwHbwGke/mHZnzpS3sRp4ki9MVFwvWW5cQ9zF3+lhiuC3FzF8ndGfGApDni829Rkz8PUZ1vhQTJuACWNUhRnSVceN8AhDX0BEty4qcA8W09fzQuteGrZCIM4lxM72B4xrzrIa9LqcJla2/3pEobU2vfqaMb6fR+/c8mCl5fbLx9OWWueGt30Y6Kubbef+Oiqri2blRQT64TfFnbLzFM1xfXho9Yti+BsFmffBbFbCTGby4GFCrWwM6YEPvjeXEPIJ/gMTha6OwAXPG4GOiXN8I7gsCfjgRvA8eMLgHt0huaW8MK/CkgEesgI4jeqEyIBv7kx9gvrtc/3j91vOXz1++vHwq+vh3/zZUP718V5p//C8=);lineShape=1;strokeColor=#000000;" vertex="1" parent="1">
          <mxGeometry x="634.6736113955596" y="502.0018541068497" width="1.6299722602473932" height="2.370638171590703" as="geometry" />
        </mxCell>
        <mxCell id="3U-C9vwaX2pTOdvYETxJ-72" value="" style="shape=stencil(7Z3JsuTGDUW/preMnIe1LP+HIyxZHZYlhSRPf2/AHXxVvKg6tBbeadfDu4/MTCTGC/BT/eqX7/700zefSvrl159//Os3//z851+/+1T/8KmUzz98983Pn3+1P32qX3+qX33748/f/OXnH//+w5+//P2nP/lP+p/+9uM//Df86wtur2M1R5X07y//MtOR9n//5Y9fAN9//uEKyPkCGPvoCQDzaAKwZ04AjGNMBRR6pX5seYI9cwGgHW1fAeNotIZ6rHQF9GPSGuqRlgIyraGcS/wAtKPTGvLRZJfqsQcA0jGTAujg1j7WVkCCRRsgyRPKudGvAXauWQGpAWAetVwBtg0dAOPoAZAyAOxc5ZUSnsNqpzA/ATKcw6q6hr6PQU/IKt4GKPSEfOTrne7rPMrXgHTUrYAOuzTtygdAJsA65rgC5imOrwFTRcMACU569mPIou1OgyzNdkw5h456adr9CoBWEZDqFdBObfsaYEqgKaDCwc2siqzbS9ITTAlUBVQAmHLf8oRyHuU7QA6ADAdnyr1eL1DPR4dtNeU+sgJIL5lylyva0/kr3gFyUQBpDVPu9aru20bRcOV+PYe2jkG7VI8hgHksOody/r4nAOlWU4xidts4Kr2SbeJ1l1o/OjzB1FaXXWqntn0NMC00FZBgW01HiF5q9SgFAEP1UiuolwyQigIKLbofRdaQ8aR7C7uU8eB60EstHY0WbXtyfUI1U0/nUFRaDZBA+HpW4avswvmFvB5cnad/8xJg90sOro5THN8BUlMAaQ27LlsWbS4cCJ/fr6teqg0XbfdL7HSt6Lea9K/rSdfCi/6wBk8AkiUT5i3bmlGWDJDk4NK5b68B+ahZAXTSJmr7Kq1ln9vwGrDU0TVAAfE2USvXky4LvfsaAg4DVLgPLjnX+1DmuarXgHrMAOj0hOA6GKDQGpL6Sw6AbbUl6jlM3FYDxEWTV/kCwG6o/XcTgLnSoL1LiFBsGzrskv++q/auH2by3bY20a12peCV7PeVoAQmXCC/wfJK7U40uty4jnrJXiDLGtgTcD0nABYNfwF5pYXK2AB6DgtNlr+xqMqNzom9sfitLaEyNoBcUVNt5Oj6G1+Fz5Qneff2xqLITJ+T8Nkb96ssmcUYIBr+xuJVdswJuLMjrzROy/0OMMWbYUXmJkuesDCvYUtssuiNUZYBRJG590Emq6v7Y/4N6dY29IoaYDNA7HTnVItt4pB4uqHw2Sa2ogC001vvdL/xl7YqY/PGB53Dhw/5lERodNJmZOUc2A112RwKIHVvJy3S6rkZcn+aSqs/AfSSiXcNi94EKCFzsk71/NYjK3oOlNF1jyycdGU1I866BTmVtEZS39uEjzJYpvk0EfIRs7zTrZrBYke3xiRCOjMd7wyK+N6d83zRSTSBp/jBAClE7JS2M7ObhwISe5Vi2O2G0I1zrzLYB3KwzJvReLphmsIAKUTsi104SUh5zAInbU7iklfKeOPcNb+edGP7YABJF3k8DYsuQ+20Czwt+sMqP7k/JHylqeZzjwxkqYSA4+FBvQOok9jROSkleGRc4ShZdavJ7wIbZ4AqaygMSCpLJo4UlhlAkjk30W6OaYqEVzRb5Hl9JY9Z4Byy6YgQlk24DwYQ+2DiSFWaPI4iUVZHw577sSSebueVegcQRWbSRRcotxC8FlSVuYbgleM4A0iEUjhNkcuZ8D0BmVPAOasFsrMnG5dN1K7nkDliN4C+0sdRvgRsrYjYwWD9Ti9o5nAjhOt+LFRAUQuaWdVPraHaHpPcBTVsO4Z5UC2IbiyFhMzvxgpWUzu1UAE31b+DnQUthHbMMhRVQw2zGB/hzePHKVbIIZ+MRaikO1PwoqTzVnwc69Fh382NEynGXF5S9flRbX3349ffntD5SFoyTBheJ/U8OGeRTq/78ePktwf9kTDGDBnFhPIeTvVjq97IjDiKXJILaeZ0J5H64xRk5bNi/7SReJuEM5Mxbi1aryyc4AuFO9zIdrr8D01At6mpMR9IZOnnXTt/nNM9XW3awtBzRA1M4fk80/hPCp7U2NJwxwwIVQOXlrnMQHV4n61bbwaQDE7+uJ9PFpkkJwfqh5l8uuIGkKSkORVEhXrh56wzdHjnSQkVyhwjdB+b3nS7XfiEphegZKzvP9yaJ3+T6sruN8kTGvJdDKBufMMspu26ZJ5M1tG5W5qvNgDlGPMKWmWxLG2lHJj8ZopSg+H1Sh2FhCnUMxNSoR6m+Slgw/qNaV4J2CoqR9e9sRxDr1RDqbudJIR3oblWTPtpq94BRIt5aE7mo6sfbME/mqfg2NbFsfwIVS7msJUZ0jzpzDq+A8grtcwpkpAc9jQPLTrUAj2RRAe31eh7qgquqAmzxJBeq6D8XNZIu3UkyHi6TWofg6tcJWQAJ55DLSHdxqJh10V3aaPmq9EfyeelfZcnLSHXSxyFWDzsFUOrOgIlrWFZzIuHkkLvmITxcudV8/XBhIAV1rA417tDoWGjmrELKa6DM18JkDVr4xQyKvhkzTGOgmUAu5BKHa9c8KlaaDAARcVeUL2egzPzuHgoLqITu5mzI57AYJqpZ9hlW+ddlas2BZBesisvPIuxuMq1ArF7I7fWAEuigMQV062O7swcxGzNOMyC0WYPbEUDkMlyLXS907OiFTUtJOp+NrTTpoWk+j45sWoAoTfOgfT33jTDNSfmE5zRLItezOkc2oYwb7iEU6uNK6Hf2kOQtQpqb9dz11daNxznkNJZDY2iAcTsrs6U5cDTXgPraKYYdZfmqUdeA6rmVtdm2nXTjMdO/Er9DOQ/AAU9sjG0lWKzv+RqSwAd/aURQpo9MSlkWki8+83UQANILdAApAQcMBRAa5ghq785PPY1bAVQhOKc/wAgo2iAEV6JrqgBpDyZEyfzDFHjI3gRolwdwCcnad3NimmG1Ove6OnOkNo1AGV/Xj6Bsl2+hrDowtJXgrgS58DPIYgr5Un9qMMTsC8nqePqAJa+FbaV4oGZtAzlu8RPiFcOG3leXWqK8V+qDSq3+KKDaFAFdIZuPr8PfA6SmP0f7miLj+BVl3ipWZXluGpexG8DmIWQAolZiJvmIr2jHRdtZlGP+sZ5CH1n+6ajKmSYdsawyZwH8frMF6C09whptbXYFwhqw9wTukF9q4VYA32yHkj85mKR6vNwWByghpnvPjWRvbgftoe+5MUH54TJ4Llm8ly7UllX5m1tGtSYM10oqKnqC8zNMUrRaHRyp6fz7iSo4eSjc2mva7CghjIbFsnJLlnYRABnpobADCPqpVQlixVJG7ep0mrh66JXmppsMQCJRhshQOaTbj30h2/u5GnKRxk3dNyqIbi33VNWIGZnBqekirI6BwfInmG6HpxpW2TXhqqyAaic35KGTR55MZVV+FmmnhfRQLdaUQNQxbWGqqWpZzKK3lp33aV+0xsRqlk3TG0DiJ3ukzOuMac78Ip61ljY5h929R1AOcg8L8F78YTaXbAM6X02gfVP9Kka8qE9ofDVrH0F3htBshRbdBfG7F6ykKLIxAxTCckW01TknHidRuoDHRftRXxZQ0MmXgm61RRPowJb4IF54pme0JUAb3rkpuYnmQ1vLqJtbVrd9Xw+7VIw7E6JpydUTQLXiQmjErxKv+VMx9Ve0s51y6CM7dJSfFzC3ApnuBO1YIee3sIkza1W1Pv/iGgaMt81Mfd1hd65hCmpHFiOznCnJwyNH+4YwoGUU7i3OjeNgUrnNTR1sArf6VzVDTX5pXAgF80iuDgSiaQEPkVGk5XzC4YwUsyS2oeHsLwEbG0Ky5OHDqkkZT62SMfl+xmGK+SGPTahzGSnSBHZ0NkkuXDtQaXOj4QijRDac1OeRg2bjbMWyln/xlION9a8YPsi4TCwfYkmk/V2NQxGQsRWkTIWWD4FWeK/03dhZ36n77758f8nfTerb8WtIMFRyhwsheYXdA2r1h55wk3IEDXcmR4VBy21qz81cBhOcLQ5uAiO/MJ0QWD7ssscAhFn28Kv33r7zNxQuiOMz8sFU8/2eGl6dXtJQp8Ds7YxZzR45PnGTyunUXpyKSiJlGtgUM87gFRk77qgWvASuMCaQ936jk48whiSzN1okezL3fs5jMS865cJdDGnE5MLv8KEmoGFQG9UDEECxo9JHZiHP/kuuhOlW7ggW8JIzLthLaFvwoI19JJCU5Szg5mKG+nElER6sL6fQlpyOj21IK/UsYGiDE3mVW7nfMwFegr88eBWmNjE2b+ywqI3b+vWoLmxq1LTqxlpxBnNWv00AM6PCWMXnB3MvFfNa1UMOGtV23kzrMUkR5m1/S6pqhzqwWN5hnbJ3mT/fAZOGGOIvs4KA/qYT1O3enY9YbDRArPEh9ERICvJohcc0OcDNiQxXDEub0XvtOeqqXZTNQTqN3WPqvSBfjMNr4Vd4rYfT9JOBRCjwQtWOwB4pI26njwu7DFI6GnROFooJBg6jyywRUuM44RKBujw08qv1F5w2bHrN8wB7Rwee9FNtjVhT1sLZYzG1KwWm383tpm3wI7xQSc8cEZ2qd3MFwt04tZZGS8NfhuPtKmhX8tHkxIffwR1X/iVQhbWTRZZoJCFbQk5o7VptqJurqFVpbHeGHa3ovKExeo+qwWqzHutcebHQFJGTWHQScf0edlhDAn73nFQos8tIZ8vzD28Gev5cM2fHN1CPt8ISYPErXxBe5fbjjBhBBVW9yVWJQY32k1Nb5eBCaoSvlRQbibUxAmXPNDY/db6WwCP9sZnACmBrBmTwuFADe255WZiU/BbfTIEKYHQAeNZIFp016q1x6KkKrsWPm4m1NSpiRDvhWXKhO4S89fqDkU3nl/vqldeicPjVjQX7PUGbo6SzMnN8NNW9ZVqQiqXj+4K01Jx0T10qrJe8m7FpACa/uXdigIoaFBaIIB6iZheKQavjce2bDW7taG/9GLWdcd2dffwwjxWctZ7SNvdzGN1L1WesHDqlH+XIBh25EI29WbcR6Nd6uqGVmYf9xE8sow2zsOLpAC6QD1ojVa44Bjd0ILpohEIDa1ik9rIYfgpF9JHUUJD4xTwqBpltY6co9FCiD8wUvTGojgiFoRvDHV/blhNIzKCFqqZEaal+rx5/kyGftQl3fUgiM/XeTTJTBpl9czfaAmjGHvhb7TEz5VUVAIvPohSuQGmKU228/ccZlACN43Yc4bJuzzdZoZPTHQW77nDJ1eY8OYf1ykKwClpYShz5wbgFdqkOxN8VlU73RcaxdXUWb8hgK5wpzvP615DdWvfWEpcgQbVN8/qWZrBGgm1xgqewEioyNZWj2wwIWUnTeaMjKWpHfpIvYMebtyODOpy9+GycpVWMwA0pHw3bXIwA0BawwArAMjG7chk79hMvkf4RF3HOtAeyt0Zgz8gN9XBchNDH19bSiZ+NLu+BmxVxm6TGKDDFTg3s3f4cBn3Cj4azJ4ApFt3GNV7MzbgqSPtCUGu8d7hjnIz7I4ftduo7x/NtSfA2zjpqLemEicPit7BojzaON8BtD0l8VzPrc6GA2jRS09uMqHm9WckfzPgomfsD4+vVn77+fvvv3z08vn/9SuX9k9fvpBZv/4P);lineShape=1;strokeColor=#FFFFFF;" vertex="1" parent="1">
          <mxGeometry x="635.3349151918278" y="501.07004236078865" width="3.722525296016215" height="3.76351598101769" as="geometry" />
        </mxCell>
        <mxCell id="3U-C9vwaX2pTOdvYETxJ-73" value="" style="shape=stencil(7VzLkhw3DvyauTL4BMmzH//hCMuridVKDln27v79JnaieroS3Vnhky++STOFKZIAEokH66V999vHn3798FLzb9++fvnnh3+//vzt40v7/qXW188fP3x9/YZ/vbQfXtp3v3z5+uEfX7/8/vnnt///+pM/6f/615c//C/8502upjFdqOb/vv0gp7H+/4Mf3x7/9Pr57vGW1jo9XlNrzx+31PLp8Z6mPX98pbVPj1ua4/njJSc7L36lpp6vyc7LwV/IWQj04zBuAjWVKgQsWTkL9FTVklay85bxJ9QbakmZBFaqQgVQmbWzynLqSsCOM7kJQMlCa37q501DzUUZUT6M5iYwDk0+FsCp97MALKMIgZbm2TLqTCb20EZq52PFrrYwjbZSOZ9SK6mIN/R8HOJNoKatBEpqZ+NrXSqu4+/VswDMUeih99TOx4pdVWF8HaZBS9rHOx8LTPZo7Mq6fAOdEnalNA2BEpZUhS1BoNKmp970SOtsrTCWrt4wUjlvGuYoFdfDkmBLatPQNDnQkuaNUyeYh8dttQcA4zgLtMMcn/lDJRDIaSkHCpouN5d6LNCDgNYD/KuSQEtF6AG41Albi1wSTn2eT2kfAe/x85Pjyc0/nj1fzju4CA5QAsfbro60pF7o+SK8Eyqg4DPSVM8bGwX2qzS20sh0nkspDL8+O86FwnoNNgTXVM4fXBNGVxWmBogsM2Xl/DNtogywKvWGdZzhnac1gRYjh/gM1ifUNsoBV3cB3cSxjnqYwX18Fng0YJcEL+tQ5WMBY1922xXEakyGSMcPoemxmZTAeodwTst8SjBfE0uykvZ500BZFaoMbDsEwy6O1UCvz0vyEC9syYKDwn6VhxoQjPawU1ECgdPDuhSbnJkp9Ghy07MyaMBYpEBjrjfWEbEfCwyGPehe0Z4J6z8zMauHZh4LTCbpUGVVe1hMcKGZLBwIS9qZBeQbQny2cUSXp6fUeNOKEUMPhHzwQZXvzcrmDU0vJQDaQwJNBpQZoBLgqZbk5k0et6QecOpEDkEXVdKKU+/ngAIQUKweqEFg7KmHWlI58pA7IMvqDZlpRjOZ8MG/iGc0jUvQq8VkScE9jC/EBxnjgKQUsnYaKmSVBxmi4hqwnEECU8IMBDol3nYEgGcCdbNA12+oiwVUojFC0nrB+HzTIbVXFNT9a7GAPNZQAAE5WcqWSuAaXYIxBFakPyLGwZZqDW/QfInyAN+DIieVobIOySqBcyUcqySJISg6V1eabsFF81HLesb5KAJd+bQd6d1d4i0VNw8PvgMy6Q/rOPX7eoYiWDfCdgfGKgIBWyvxpZGG0DRiJm0ajGwr9L7R2jtGNoTx2S2HvMW4KtNiC0UcqFIBmW0GY8Czqioj7JJpDJ0oIrBPWtKWMAOuUSKFU28IAQWakQLGmrauiW5P4+zTTrAUhWuc+GFJKoo6Mz4vCQZvAgRwrMy9TVZBZ/AH93LxBgsVE0cqZa0zMLJbLeuZeVP5Gv6gcAlqKuRxU9OfwmTdK34KWzczgX6Ri86QljXJKnHqVN/rRZZNnf7QHrKOop3JCQQkEzAukPcqq6CesRufkgIBz9iJGU+pB7udyR1Zv8DWfCaJzm+U8Y2jmnRnrVvZUkj8PK6qgLJDCa7LPcBFO4GxyZYUQGCRx02N3o0TP2gmqzc0LoQAjFVXAGA8znrwfFo4EPJpKuZAM6pROTejhumawMpsfNCMKtutyv7g2alAvtXY+KYGgdWZOuDcVH1pDda0Fy7UHubBXW4C6whijwUWL2llaRprM9fAuVWhh12Ye+PcphJoB0bcBOygvo8FAm/FIhX33sZpGRapUvy9uc63p7TWkjObKyQUCuAV+2xMe8l0FwLUW8dPVG8Av66NBVTRGAuIb1DdkL3YIe7O4bHE5KDl56AEjFM/34Qw8G2cNvkxqXM1Nj9XhNq18a5d1cKr/Q2TBaT5Wei62AEMzwT2ZgHFvnfoe70v8pmqyatdQPnc4k7Quxc+M9c2WUDFIAjMcKwXDrEXC6j09YHAkhnE3lw7gYBKX/d+4A+qVL5Dr8l9VJnG4izId6X0MDnl2DoFh0AOAvJYjYPW3hJddxgpwK5kSDFOLq8EEMjpWMH6BJ/ZITHDT1TF1eMohcV1MM1nkZr2gLCoOqMrRLnVr+gJsb5VZP1nhUK2ky61pMLTaaAnqh+Pv0cJ8tQwMzfnu8jii6K6k9n3rLrtMnhJpj3OF0CFiikVhwUQCJguoMaOnBepVJ61eVzL62YqzzIevPD6j6oKxNbR0AKhrIa0SeZZmVsWXoNV+e7ilMM7Bip9HaFZuyT/wYqJa3izVpWZWxgHGXLUyUvlZ9ToF5NLO5RCivQ4CHAff1+1LLjLfmtBP6tstMECsnYymGtAQJHEEVhl05zPQtul6xFMCy7qA1wXjf9YMFJFr/nANFQmFwt3Xc8u2Q7mvaU/IB3mWuJFibaFUoieqARUEoWD7hUNRTTgQvbUFVfjqROv/enGP52SlaPf+1ggjEhB96q86aWQ0PhXszk4JessoDQ9K8c4G7KbFavGwPML4+NiS9FTJ3ZYzp0eFFn30jvVpU2OeFjoyAGe1Ry2rzjEBzWzOTYHxb5103yy4hAfpopAFny6yzgNd+EJJl2d8UYRoffWden2AIzlaEE5+m83gS4zdu8fE3q3w8ufRSAiuq3IQRgIUD20bjkz+PekwCHw96RAFPhLJgXUknq4H2IyxgE1eNRmXU3/0EWGqkuJI8QHuKjatDMywqWqm4SVfRowI6dDw+xmMwn3iEA8T7Ek/fE0j1hlkYkfGBmBAOBeNTrByKhM0XVhEExg/ane6+wh7FZ5SkiP6b6UjxZogsUkccmAAoLF6XHWjCx0d2EsCgS8ihEonBoyXOFegl3oIUwlQveqLY9jpZkQ01fpZmcHMtPzpwGXTF8S85kQYpVFhqwZeiJj6+7uYn9w4FEuGqYSh44PFhOOKitYFkeTdYfDCteMkZapuXjvtJJAl7bkvVxilbfbR89oKM9TZD1JNjiw+2Wii9sDNE46ZJcdMS4Tq2xXJJEyFL+Rpe6tbS7b1S39oYerOhdXJnpoTYEJVGFL74NmNwE959XDJJlfBtbX0IjC+dUVVf3JD267yktioa1Tumz8I1sgBypNVk4Qxqnh7FeIBMyAKFBlfR/G9fj5zEOJU45vt8p1xC1bA7Bkwsmir1jGS1k406xvZfGZmlRCDwGubJkm9jCNVIu+Gxtmtpx4a2fgW9C6e9dD2cTvoinbXuwMTV+b9mw+Zq7qTuYOc/pTlhz65j5t2zKq99CB7PqyTg/TSNCMaij2UGy9KDl4ATqUHLoSKByke5YF43iJ8P0u6zN/oGmkZvrmahjna3o0FL8mPbzfgH8GGpyua8IHVJqUri85bOe/Jn+YMifzcBZKDgooaxhfuviMAMIZ31HWvTWgEM+4Z1lG9OhE4WdJPfgHIwiMTdaKSqj0ly6DtH/zggSqHOxfzAKKnrUL98S2LnYxTE5JDisjkr7CHe5vNTlMkLm5VOXac/iUhvSZzIMHRY5FhnSkyLHLzPeG9RXDUMDIMv5lRtEsezGZuxIXfsKOqIf8wk2qi6+wxMUoZl25Z5Nlh77yNzD0Zbk/+b2cy8fxj/dP8/zy+unT25d97n/Pn/LBj94+A9R++B8=);lineShape=1;strokeColor=#FFFFFF;" vertex="1" parent="1">
          <mxGeometry x="632.9441324536241" y="502.1627499370285" width="1.7398569607513537" height="1.777196587784033" as="geometry" />
        </mxCell>
        <mxCell id="3U-C9vwaX2pTOdvYETxJ-74" value="" style="shape=stencil(7VrJbhw3FPyauRLcl7Pj/IcBy5EQRTJkOYn/3sVMSA2L06X4ECABdBu1+pF8e71in8K7L7cfPt+cvP3y/PT4680fdx+fb0/hp5P3dw+3N093z/h1Cu9P4d2nx6ebX54evz58PP/9+UN/s//67fH3vsKfZ7laTbFdyttv5yetmJj/evLzWeD+7uFSoBiXVoFgrBIIpoVFAEv8/eS6gDV+3aE6U8uxQMkm1EWgFNP/PBSYJ54C3pR6LJCbcXERyNU4sUOOJpJANCkdCyTs0FYBa6oVAsHUdYdUjBVHitXE1UpYQlkphqHiEIjNRCEQiillFUgmOyHgTSQBeFqEhs8mrbEUmvSDtyat4R2SFHBluGkKOFPEkVwYNhkCvpog8gHBT+9HY4WjownrgaBTE5HkTFrXd80Esb41eQ08h0AR61vj1jCCyaLITju0m+/nkRtH668x4ZKJIohwfjoPck85zCS3vh9MErnvTSL7eFObCOpRqy7ejyqRja/8vhP2zyMc/+H7lUvXK+dpHM9dX2EfZ68ZVAQE/G/JoigcIiLgsrCqDKeoFIBNOWey8SIngx0hNrMeYasqVzJttSqeBKFD3KyEJ1mlPUrnukOEDiLukh1unfUdqSSUTthhNSsaQlM7VC7XaDmq1GV01VVpPPGqC043TYEgOwh0oGqBQ1a1A9ZbwztF6enkOFrRBZWV4KayJjSeJBUabqg4BWA3oUOo3GfRBZUfQmRw0Z8IpVEECCChjKjW37vUGnxe4x2372BNUY0ZoUF1r4wsvy7ghpsuC58oZJVP1IyXdTuuy+M4wqSRky1LmI2gJLAmz741nSh77Az5GQ+yJUQGUV525MSx4AZqO2hohN4BfMXqxeRMryt4gzgr9LpCyb2bBX5fLN+jjI/jNVz0rG0W1aSDGTZmUM21MNyKcozo1lvDGPVTJ7qnrHKyusFfNKc4XRlQmqjbdwArjoSxg0sJ6qeq0G6DB0UaKW4RjaHAqdpgOaahVVW9OGwVuso4QuclmPYyrl3PMsQZlYgykO3hCEutNcjQwEjMNSvLQb+P4asO/ZBKoHJy5iSBYHXj37NIz4HwukAaKk6BJP3QKiOWGgfSuy7QOKGxZxY6QKCtfqhZApAusFb3WjXib9xaaxvA7UhpKjJNkxUtc8Y1VA2RDy2O7nghoKau5hlfQ0BROjhx2QS8CG/YhDyNJbzCE5WrRm2aKSs8VOBJ1jt48rSeEfoB1hRF8FkV3pb9gPC2otzDD35NoBokcoSnXWYBmXF50yHInG6FAXmdePgoH3YreaV0GzPHhR8U5HF2Y0VeIUWxBdE6PR6VEtuw1n0pkAPsStHXnATYLY0eeJmjSoewUcea2O0ZWVlAcVOwCZFZTXeUXui2SiZbUGByuhQJtXPbBLzkp3JhcI7GKhu1486O1p0V2NgIGPRdCWe2NoqhWfkB0IJ6FoZmBVuBsJgeSfJIwHCF8I+V6CRkhpUhywYRNmIRoE/5AYNMpjEpSy4CMLVuvJY6EmZgnqyq5P46NbiTqcIPlfs05iFF/iWeDP/1IfhHmNe3IVgMwbI9/f+HYGJnJSaHK6mC1vHgMNNpRNVXaWG70kQqF8XYpTEuzmhzIxmO6mHaKG/JL2eey4OXMZTsNgRneTOW5lxzSXmrW1bHVuqDtxIIDFlilTcJOW8zbdKXLYVHo+zl4ILWS6GN7i0p77TtUPXFr+Uy1/dUni6c/amNO8hDQjqzlZrYAdFaVkCBQzbdW+l6PCY5S/VbMuJHmvSD3/ABolVe/ObRuS7yQSEQFEmyEqqyEiiDcp/vB5mhbxe5bxe5Kzb7r13kWk77/jGE6uOJ52SnOUj4jGCR1+W3X+JQkumgBqanShT0PdRLGZkCQU5bL3PJFEiSXUNnpsTstU6BcMdf9kTNuaT9ihJ9TlgJTY9biNNsc+FBAi1EQciyQbBUxwx5xAWTH4AGVHmpmw5otEGRZXmA5DncaO6rNoZUpWkqy19h19RVx1UeVSndCuPIluRgcYXazePG/HAH4pmKLNutbMRUlfgFB6AEgoCkjRKzD01/uNbiFQHJZwc26wWjd+RqwiOvSjj+UqEfSrnO8ncEXe1XyK+0GVbTx8z4Vc2Z//DXpa8L4MfLx6yf7u7vz9/CXv6fP37Fo/OHs+H9dw==);lineShape=1;strokeColor=#FFFFFF;" vertex="1" parent="1">
          <mxGeometry x="634.1090946206999" y="503.1478428256181" width="0.5865800878530081" height="0.8171666046906694" as="geometry" />
        </mxCell>
        <mxCell id="3U-C9vwaX2pTOdvYETxJ-75" value="" style="shape=stencil(lVnbbhw3DP2afRUkkRKl5zT9jwBx6kVdO3Dc29/3TBcaj6jZY+RtL6TEOw+pi3z68fjl+8Mlxx9vry+/P/x9/fr2eJFfLjlfnx8fXq9v+HSRzxf59O3l9eG315c/n7/evn//slFun/54+Ws74Z8bn4TYN6Yc/739kGvo6f9ffr3RP12fD/Qp9DzTl5DjffoYVGb6FKwy+jyfn3rolD45+jZOuEMfbaavQTul15legzVK7+SRceM9+jjTpyCF0Uub6HuoRN0USpnIazC5T55Dm6XXEImyNaQ5eCC73ifv47BBjuAgoQNLmDn6yOj3yH2np6Hc/Pl5GPfcODHU+fwSEjkfxznfWqgk1JCL5n0bSejjeqcvLJaZd21h0BHe5wzdSwQbJxJuggCoPh0j0Vkk5Dm/YOVG8kXKUHFnyNSqYsHcDUpTRnrQWenN0CQuFBLPfoahC7lBc+hOBxiaJL1q6PMNwj2tNlTcGSQkEkvag8ypLEp1KNkXdqkhEx2KhD5n2+YZ4ulSh8R7MeL5X1pIs6c1BSU3VCT0LJLCSkSHmn33gGcqMWtVH96bZ0jNqNWbtURqpWoLQ+YioT+6KqZBGUMPZc6HYrTlW/KxBM9UEq0moczhXeE44gdDPri2prRUWg0yKw1DU5HgptlxMEMiZcZQq2eRYAbWOxuqxmxWmKERkVoerXtnKKMsnDNoaLMfrFEdWvXgpUXaHxoaynxD48W4IZbmBIKQDJD0NNy0M9hIqXOGPRB2BtRWYqW+47+96+bRAM4ZoMMsUreQmA7dt10wVHJDigsq7MhaLpOHDi00khBgyE5rdABSZ3Ce81znPQs6WvQMDMnDEbbc0Ekw9eIzCAyN9Ky+47UDA2sQCKZSvVmpSDrcdGBQJpIGcVYyroN6EAoG1nc3pZ1IlU4wYOjVM7BqjL/bwiAs5RAafWFgSY3+UTxDYY7rY4g6MHTO0BazsrnwPEfZpLddscRG5Qy6xHcm4GHLefEMldvV69DpyASjuBHuYId7weFQ3GYHntXedVCC3YAOkj0Dw7o/zxA9AupCld76onPEvgc5Zyh+rMcRRspAk6BzvG5HkGBqyUMmtGpWjq37MgAwQBGQeZGMpxDgizrIVPgNGtLcIQCZ2Dhq2QefRWol/N0c7LNRGO6C49nTFQMqw+sL/MZQwWAfBHCgDGNLZwzqsS7gtzCG7KfLUmjBBzqXZeZgSytIHJ1IkQ4p2yg3M2BuYk0Lw6LOOmgZTebeOOrQNGY/1tpL9DmN6ZJhXW0+gaRT2AcV3a5RGg1vXXSQDzcVrqOIUPgt+8bqsHhQkg8QoM5K506R6ybAXASy0RSV6IMvK01RnGfLxiizvVodoPCwk2IzBwTQOUUTr94QwFW+xDMup2Utvs/M5/Bkwfcp0Sk/Vb8pbmPTf05fvESwGrHRtml0CUqBcVpqjAwMeN7ffE9XChDNm4dDXAzG4o3DytfyKLHvRe/Ru0cApY8kK32jE2hZlqyJAvTqe9T2DkBSDBk764sbjQSDLRvWSncl5vdDHwSb+QXU9uzBgIWHCdsvrOv7YeH9xjv0spzPIC0G26Umslm7+I4P+kbO15Oay7qrLjt3o+1bRvQe6NmcLaPiH+gzKQ4/+2j5MT0+vL+Qfrs+Pd0eWI//+xdV/HR7jZXP/wE=);lineShape=1;strokeColor=#FFFFFF;" vertex="1" parent="1">
          <mxGeometry x="634.3447902806937" y="503.3934281137749" width="1.1799501655511904" height="1.8296279984476769" as="geometry" />
        </mxCell>
        <mxCell id="3U-C9vwaX2pTOdvYETxJ-76" value="" style="shape=stencil(lZzZshy3EUS/hq8djR14lu3/UIQoi2FZVFDy9vdOmO65M1lzz4hv5FxkN5aqrBX9oXz320/f//rxQz5/+/3L5799/NenH37/6UP504ecP/3y08cvn37Xvz6UP38o3/34+cvHv375/I9ffvj6/1+/3yP3v/7++Z/7Cf/+ijuP89ygfP7n6w+pHKn975e/fB3/86dfHsan+jg+HynR+Dwfx6cj4/iaHsfrF5xPaw/j1zFweJ82nGezHp8+j5LfH56OMh6Gj6PN94dr5x73vh+z0PD///VteIKnl6M9nlQ7Gsy9+mTacS4abhupH2B4czGoR4F979e7r+HlmJ2GLx9e6/vDx7EeJ5Mv/NPh60jZhtNGSmBLtfFpwPjkB5WOSc/Px/DxpCFS6DlsfILdSfXa62v8eUx6fnO5lJLR8/vR/fmV9mdcy3sbT7KT5pGzjU8gPBo/p40/6fnLz+vGoc/V9ozrLTQ+HafPZ8B8NL67PDQQ5y1eQT7p+dl1V0REzw/yWY4C+68/58fxFfdf4/uy8RPkbTPbo3w2lDeNb07LJ49fzsuDzlevf5SHgTz+9vq38bj/3U3ivAT2vfE2/4UegF5fuo0fNH/RrbkYrPDbyBphpYuC3wM4I6ZjEGBdjHznxTSS0XX0R07ZbhIIaRHnLAeQgRSgGaC+esMMgAbbWoJ3IubOIBgC+LY2tAQlX4J8A/SjkouSL025AyxaQ7n8rxtgXI7Ie4BhuzQv8/wcUJ2NBCDxFsDNt3xKcOMEMG9FAFxDc0J6YaFKP0pxAApfDx5RQhUtwxe9jQhoXJmXMN8ByEsoQae3GSHhW272X9gRAcwuC0COVFUs0xyw4A01RBvifoofanLTIHLOYEtqdl9hxxC0hnyFRzfAuCKu5wDt+qO0im3ppGtx93HbHxDvWi9n/QZY16qeAxSZBAB5PAKYh7TpmRbdLw/zDjBpSt0DRZFnp4MbTmTiwpO2dfqiBeigogL4ogvGunWFRZeLFt4DLFtDxeC73ez+DXCLC58DkodeYqqT3iCTVRxAwVTL4RykDwwYAUBReyseDoraGoiGAL04YNGiQ+guaiOdFsC4VUxFIWprF/XeARawtwDmnLxR23OAHIUAIOETYD5Kq6it0jkEjRNTkX0QYCUHkE63ecV1NwBbIAF6AJC/1JbnRURt5KsL0LoDGgNWAJDw9fPyjm6AfrlczwHJncTNhXBwAiyT1nkJ/HNAdvdHgEZvKG5FRW0UkglgVnRzIShQrx4ziQuJKgUwbhW1EVX2djmddwCKgQQYj+K9uZDe0N3BagXtdL85/3eATufQw6Ir6nQfHtIIQLFxD7GomIqsaJ+Xft0At214D2DCJ8AAqhTAZEnEg6IRHF3xSKVFr/CGhbw0zsvI3gGIvQWolgKRrwzbKoCFZQKQAo3kFqhzlnSErFjP6HuPfHlHN0BBR1eAGQALeGkUr21Iy0n4BLDMZG8YA416ZTrvAKQPo3ouTTpIiZAh39veMJAEBBgBQPowenjDxBhohHxXn+isj5DwkoaQ2R3DI5R+M5PPAXLWH98wOOUlgIm3AIuEL7CGBJ5s3AissQWeRGM5VUocE7xhnu7NCEBrmMlTLRJHMlkCTFt0Q+ab2UsHOnviJQHMmxFgECC4DhIWstMCWPygo6RyzAzpawHIigpgPp+OEt/QLmtwBxgg3gKYPkwuacxQIhKACnoz+Bo6eyoiCGB0v4WFDm74wU12fwRoxQFE9zOUGWfBsGyGvLcAZBQFMBduVgwtZ4gfBKAoS4Bmb2hIlQKYs66ToerYEjGeDuiwS+t0EtBGZzCKK108dwcgoyjAtClNDPxWdvbWNhDNCGAWaC6kylWukvMF0DaQ67Cq51u1Ksp7C2CpeE0SD645ey9OSAlgzKdVUaJ8dWc+ASgVv0LAoVWRz7eG04wmST6fAOaRCUAksKZ7ZHuSJK3TPTK9M5G0hiycfkF9WF5/0C8V1pDO0CS0FnqJ+xXNAVTD1p+tJv32y3sA36aFGakVmOxtH94DWCD3GpDCol9MKW4rJe8lGzMsGrd1PtlWPLjp5PpCNgT4Zuk7w5RQ5dbl/d8BTt7WEnaJwt29JyMAeEojrIGapfa5zrBLtK23dNIdgOj7HR391ld0Vuq4iMlvGFEhvvUgyD2JR323D39cmsjHeiqvFF0+1Qjypr8dEJJYa7JGhPh1Gz5a9AhU1vmoe/AeOqtQd/d7+xMkG+3oNqXK3Ne87rJ9IlLSUJeXu/HCx3KnjBOiApwGyOwMhIyRvDhKrut55roKQLlyAVwfTib85H0qc2E+R89bAXCSeJ9XAe7O/Sbum6FmIQcf8wgxqhlYD94ztsisY0/VDhiyA0gfBLCqyGwcyg3Pq+1QDmRpBhKY3O7wtid/NBwNjZ074KU3dBe+HVJzpsIsys7w0LY2L8nttABljKo3y86EKdcZSGByu6wAllx/lTwpVzx8n56hXSoec+zkHwFCTXunFynFlH1bBaBQbibPhYzBebXkrTM7r0YHl7wIPrj3TLtuFefR0KBoE837HhWldSzvFxpsgbSJxkujcM1ieBllZC7UDDeKI2FILYBljAQg/36EQv6u9dAamvcLDW7O2Tlf689dmBt8O6YbYGKH7qieRxAAixzF3Z8+UB8EyI800zv6fDrXFQDEGgJYurI3bJISwOsulcsooVmtV/Q1dK4WjfaCuXIBjFt75qLf6fmcXfSj4utyr7KnV7VUf8N5PeI5IHj37UWrwAxV84U2TqJm29omnvSTqvnAlGsPBbPGOdpdRAxldjKKPRT9GneGbWEOlf9GU2reStbYu5cwW1mxZawo9HiDKqPZlfSbv7RbNqixpXhZsZ1Yh+zZ6/ICUJTVQ4WtcsJIAAuP67zK4s8Bpx+cAIVuji23cXW8apIqocGIAo4WUq61YwzUQgBeG5JAC7737mHlN1hJrnInjBTS6H73nhGguUGp3F8tgLV8715iahoM92IEyEBkAphRrAmF702Db4ATha8VJ4HKd8OkwebN7NZKWnT2EL9wM4JU3kSjsCv9pvI3wOAW19OrU4X1QSo/rE23oxV965a7ARrGD3W6LBXWB2mwL7qifdg9hTalgtxau8fThZM5uy/SAOxrCGCuQ0mYRKihOaecl0q9B/Brs+er5n7zNTInN6XBMwBw0dmrhHly23ryVoHM7T819JPmgTdL6unbmtlZF8C2NXMN7639+gZoyEsl9OrnhlQpgNmHXPFS8r6wY7cyCubiS0gB70vVdK2pu7O+74nSLjVPtby6Q9S8kJ8T3vMWR8zsAMrCbVKxN5yYahFHWPywLxvToouTwNt14ueAfF2euQHmy0t4xQGvrvnZlAbGoiWkWgQgK1rOcEO5Y3JzX8+xRTc8h30FNTuAYtH93Qd7Q8X+ObGQZdZTxXa4HK6hJ27/ySGjmzJ6lfsirn0rI2E4IIDFDwJQz9O+Suz1NfT5cjCKAuDl6RbK8jyj0OY+sTC174ZbAhiJVeMtJT3QXO2vbFheho8geKDckLg51L/igTKRQ/CD/SkiROvUqDyf5OfF15pziA9ffDzgdN8zY3SYw5WyhJcN0/JLPSfOJ4XKz4ncmKZXpE9MGuzry9nGU5NJ6u4eJUyWph6+74PpW9Gm1WUTJp9EgmE8udmitPDtFfzYRvLoPyOJim6sWJK5cB3FmS7CTe8nZukfngar6Mp2b+esl3A8D+x8KxsGLM2dUv4MRvWldtyZ6nreUQ9LKI3g03NoacYrMjlULq+M53OhCVVF7DpJXp9eTCGe1ZCMUlYj3HndRppUykOBxN8bOl1sEt8LDvkGjafv75zOsNvvgfmfgdEK5vfO8FWKgh706ddp93h8fgvzp+7f0MC8nw/yEL+IVlAeoi9c0Hk+g3fOgdvpmpsKhvRnkLeCJuXbvzD3arz+8fY5ux8//fzz16/h3f/dP3+nn75+Oq/8+b8=);lineShape=1;strokeColor=#FFFFFF;" vertex="1" parent="1">
          <mxGeometry x="616.3496437121644" y="502.32636656952013" width="5.185296280815692" height="6.060807912867176" as="geometry" />
        </mxCell>
        <mxCell id="3U-C9vwaX2pTOdvYETxJ-77" value="" style="shape=stencil(lZbdUttADIWfxrdnpNX+XlN4D2YIjYc0YUKg5e3R1mOIlkSd3vnv88pHR8c7yc3L9v55MwV6OR0PT5vf88NpO8mPKYR5v90c55MeTXI7yc3j4bj5eTy87h+W8+f7/mQ/+nV462/4s3CNUEKnAr0vV2JCan+v3C3Abt6fAxmlGCAJWnWAhsoGyIKaXSCJAUoEeyUltGyAqis4QG2IFmiMFh1AVbIltYLE14FCyFYlJgLRdSITJNolGtiRKRGq7ZzqQE4jooBtI2oFO4BUkAVK84EMsrrmBhIHKGMjUkV1VIphXCGqW5zO6W1pFggITklaQK4G0CKzs0KuaMkCGSE53lARrZlU6OB8dG+TXUFbGfyBoGFG6V8zykPjCLFcB87c/OkNWoPh8hI6MBbQofJa3UdysGtbX3FZJh36YUg1GJySeqzYkr6i53KrBeXbjFYnBjQa6wBofHozmhCHoVZZHTN1QP4HkDima09Dx0whrm7+BBKyE0yc1rQ+i43ofHRBtW4tDHHaEMYwzrym7cXn1ar2AxKvKXLteWuLSODg1ZNsYgRfUc0TWz831xQcR4GYkZweBxmBBHEmRz0x/Bm0AY6garpBofHfpgdfO47HebdbNizn98cdil5adjdy+wE=);lineShape=1;strokeColor=#FFFFFF;" vertex="1" parent="1">
          <mxGeometry x="714.5538833144587" y="381.69307646117215" width="1.1974394001132773" height="1.2011127436212952" as="geometry" />
        </mxCell>
        <mxCell id="3U-C9vwaX2pTOdvYETxJ-78" value="" style="shape=stencil(lZbdUttADIWfxrdnpNX+XlN4D2YIjYc0YUKg5e3R1mOIlkSd3vnv88pHR8c7yc3L9v55MwV6OR0PT5vf88NpO8mPKYR5v90c55MeTXI7yc3j4bj5eTy87h+W8+f7/mQ/+nV462/4s3CNUEKnAr0vV2JCan+v3C3Abt6fAxmlGCAJWnWAhsoGyIKaXSCJAUoEeyUltGyAqis4QG2IFmiMFh1AVbIltYLE14FCyFYlJgLRdSITJNolGtiRKRGq7ZzqQE4jooBtI2oFO4BUkAVK84EMsrrmBhIHKGMjUkV1VIphXCGqW5zO6W1pFggITklaQK4G0CKzs0KuaMkCGSE53lARrZlU6OB8dG+TXUFbGfyBoGFG6V8zykPjCLFcB87c/OkNWoPh8hI6MBbQofJa3UdysGtbX3FZJh36YUg1GJySeqzYkr6i53KrBeXbjFYnBjQa6wBofHozmhCHoVZZHTN1QP4HkDima09Dx0whrm7+BBKyE0yc1rQ+i43ofHRBtW4tDHHaEMYwzrym7cXn1ar2AxKvKXLteWuLSODg1ZNsYgRfUc0TWz831xQcR4GYkZweBxmBBHEmRz0x/Bm0AY6garpBofHfpgdfO47HebdbNizn98cdil5adjdy+wE=);lineShape=1;strokeColor=#FFFFFF;" vertex="1" parent="1">
          <mxGeometry x="537.887216647792" y="366.45498122307697" width="1.1974394001132773" height="1.2011127436212952" as="geometry" />
        </mxCell>
        <mxCell id="3U-C9vwaX2pTOdvYETxJ-4" value="" style="ellipse;whiteSpace=wrap;html=1;aspect=fixed;" vertex="1" parent="1">
          <mxGeometry x="521" y="360" width="31" height="30" as="geometry" />
        </mxCell>
        <mxCell id="3U-C9vwaX2pTOdvYETxJ-81" value="" style="endArrow=blockThin;html=1;rounded=0;curved=1;endFill=1;strokeColor=#006600;" edge="1" parent="1">
          <mxGeometry width="50" height="50" relative="1" as="geometry">
            <mxPoint x="594" y="448" as="sourcePoint" />
            <mxPoint x="686" y="454" as="targetPoint" />
            <Array as="points">
              <mxPoint x="642" y="439" />
            </Array>
          </mxGeometry>
        </mxCell>
        <mxCell id="3U-C9vwaX2pTOdvYETxJ-83" value="" style="endArrow=blockThin;html=1;rounded=0;curved=1;endFill=1;strokeColor=#006600;" edge="1" parent="1">
          <mxGeometry width="50" height="50" relative="1" as="geometry">
            <mxPoint x="742" y="510" as="sourcePoint" />
            <mxPoint x="713" y="546" as="targetPoint" />
            <Array as="points">
              <mxPoint x="747" y="527" />
              <mxPoint x="736" y="537" />
            </Array>
          </mxGeometry>
        </mxCell>
        <mxCell id="3U-C9vwaX2pTOdvYETxJ-84" value="" style="endArrow=blockThin;html=1;rounded=0;curved=1;endFill=1;strokeColor=#006600;" edge="1" parent="1">
          <mxGeometry width="50" height="50" relative="1" as="geometry">
            <mxPoint x="528" y="539" as="sourcePoint" />
            <mxPoint x="525" y="493" as="targetPoint" />
            <Array as="points">
              <mxPoint x="513" y="531" />
              <mxPoint x="516" y="515" />
            </Array>
          </mxGeometry>
        </mxCell>
        <mxCell id="3U-C9vwaX2pTOdvYETxJ-85" value="" style="endArrow=blockThin;html=1;rounded=0;curved=1;endFill=1;strokeColor=#006600;" edge="1" parent="1">
          <mxGeometry width="50" height="50" relative="1" as="geometry">
            <mxPoint x="664" y="550" as="sourcePoint" />
            <mxPoint x="597" y="550" as="targetPoint" />
            <Array as="points">
              <mxPoint x="631" y="552" />
            </Array>
          </mxGeometry>
        </mxCell>
      </root>
    </mxGraphModel>
  </diagram>
</mxfile>
